<svg width="200" height="100" viewBox="0 0 200 100" fill="none" xmlns="http://www.w3.org/2000/svg">
<path d="M34.527 25.256C29.168 25.256 26.309 25.614 25.058 25.614C22.974 25.614 21.128 25.554 19.281 25.554C18.269 25.554 18.09 25.614 18.09 26.031C18.09 26.745 18.328 26.806 21.009 26.806C22.676 26.806 23.63 27.342 23.63 32.047V59.447C23.63 60.34 23.51 60.459 20.83 60.459C19.52 60.459 19.162 60.577 19.162 61.174C19.162 61.771 19.579 61.829 20.175 61.829C22.08 61.829 23.391 61.591 25.892 61.591C28.512 61.591 31.014 62.186 33.515 62.186C41.793 62.186 47.332 59.03 47.332 52.36C47.332 47.179 43.817 45.154 41.018 43.723C39.827 43.123 38.695 42.83 38.695 42.711C39.4701 42.1164 40.2869 41.578 41.139 41.1C43.045 39.79 45.606 37.7 45.606 33.477C45.606 29.254 42.271 25.259 34.527 25.259V25.256ZM136.569 25.324C134.514 25.9493 132.393 26.3319 130.249 26.464C129.369 26.516 128.949 26.464 128.949 27.085C128.949 27.655 129.468 27.759 130.4 27.759C132.731 27.759 133.042 27.759 133.042 31.022V59.563C133.042 60.495 132.161 60.444 130.042 60.444C128.798 60.444 128.742 60.756 128.742 61.118C128.742 61.532 128.842 61.636 130.042 61.636C130.767 61.636 133.513 61.536 135.274 61.536C136.207 61.536 137.347 61.636 138.124 61.636C139.988 61.636 140.351 61.636 140.351 61.118C140.351 60.703 140.451 60.392 137.864 60.392C136.932 60.392 136.569 59.822 136.569 55.523C136.569 54.023 136.828 49.929 136.828 30.192C136.828 28.638 137.087 26.773 137.087 26.151C137.087 25.581 136.828 25.323 136.569 25.323V25.324ZM93.564 25.376C91.1988 26.0347 88.7652 26.4169 86.312 26.515C85.742 26.515 85.638 26.722 85.638 27.24C85.638 27.603 85.845 27.759 87.968 27.759C89.368 27.759 89.781 28.225 89.781 31.903C89.781 42.833 89.625 58.166 89.625 59.668C89.625 60.445 89.159 60.445 87.398 60.445C86.155 60.445 85.898 60.704 85.898 61.119C85.898 61.585 86.209 61.637 87.398 61.637C88.123 61.637 90.04 61.537 91.798 61.537C93.456 61.537 95.837 61.637 96.614 61.637C97.753 61.637 98.014 61.637 98.014 61.119C98.014 60.704 97.807 60.445 96.614 60.445C93.403 60.445 93.507 60.445 93.507 58.011V54.747C93.507 54.281 94.232 53.917 95.061 53.399C95.6226 52.9703 96.2304 52.6057 96.873 52.312C97.184 52.312 99.361 55.576 101.536 58.062C103.711 60.548 104.178 61.843 105.111 61.843C105.836 61.843 107.39 61.791 108.011 61.791C108.477 61.791 109.15 61.843 109.772 61.843C110.911 61.843 111.272 61.743 111.272 61.377C111.272 60.963 110.858 60.703 109.615 60.703C107.854 60.703 106.196 58.165 104.434 56.042C100.808 51.69 99.877 50.707 99.877 50.242C99.877 49.879 103.088 47.601 105.677 45.062C107.282 43.508 109.043 41.281 109.043 40.814C109.043 40.658 108.836 40.607 108.422 40.607C107.801 40.607 104.795 40.762 104.122 40.762C103.5 40.762 102.517 40.607 101.999 40.607C101.326 40.607 101.067 40.707 101.067 41.126C101.067 41.592 101.326 41.695 102.103 41.695C104.382 41.695 104.537 41.795 104.537 42.627C104.537 43.715 104.071 44.595 102.051 46.512C100.393 48.067 95.005 52.832 93.71 52.832C93.555 52.832 93.503 52.676 93.503 52.469C93.503 44.026 93.813 38.225 93.813 30.351C93.813 28.693 93.913 26.517 93.913 25.844C93.913 25.533 93.813 25.378 93.551 25.378L93.564 25.376ZM32.74 26.685C38.16 26.685 40.661 32.403 40.661 35.385C40.661 40.085 38.696 41.221 36.969 42.532C34.9341 42.2816 32.8852 42.162 30.835 42.174C29.405 42.174 28.635 42.293 28.635 41.34V28.413C28.635 27.222 28.814 26.686 32.744 26.686L32.74 26.685ZM58.857 40.085C54.143 40.085 49.222 44.437 49.222 51.74C49.222 60.391 55.542 62.463 59.789 62.463C62.9616 62.2515 65.9797 61.0152 68.389 58.94C68.389 58.84 68.234 58.525 67.974 58.525C66.2165 59.3254 64.311 59.7492 62.38 59.769C58.443 59.769 52.899 57.852 52.899 50.704C52.899 49.513 53.055 49.254 53.885 49.204C58.0696 48.9247 62.2259 48.3185 66.316 47.391C67.716 47.08 68.441 46.873 68.441 46.666C68.0599 45.6612 67.4777 44.7448 66.73 43.973C64.7217 41.6891 61.8914 40.2925 58.857 40.088V40.085ZM119.257 40.085C114.544 40.085 109.622 44.437 109.622 51.74C109.622 60.391 115.942 62.463 120.189 62.463C123.362 62.2514 126.38 61.015 128.789 58.94C128.789 58.84 128.633 58.525 128.374 58.525C126.616 59.3253 124.71 59.7491 122.779 59.769C118.842 59.769 113.3 57.852 113.3 50.704C113.3 49.513 113.456 49.254 114.284 49.204C118.469 48.9247 122.626 48.3185 126.716 47.391C128.116 47.08 128.84 46.873 128.84 46.666C128.46 45.6613 127.878 44.745 127.131 43.973C125.122 41.6892 122.292 40.2926 119.257 40.088V40.085ZM149.135 40.085C144.421 40.085 139.5 44.437 139.5 51.74C139.5 60.391 145.82 62.463 150.067 62.463C153.24 62.2515 156.258 61.0151 158.667 58.94C158.667 58.84 158.511 58.525 158.252 58.525C156.494 59.3255 154.588 59.7492 152.657 59.769C148.721 59.769 143.178 57.852 143.178 50.704C143.178 49.513 143.334 49.254 144.162 49.204C148.347 48.9248 152.504 48.3186 156.594 47.391C157.994 47.08 158.718 46.873 158.718 46.666C158.338 45.6613 157.756 44.745 157.009 43.973C155.001 41.6892 152.17 40.2926 149.136 40.088L149.135 40.085ZM76.883 40.447C76.053 40.447 75.069 40.706 74.241 40.706C73.205 40.706 72.221 40.606 70.46 40.606C69.579 40.606 69.631 40.762 69.631 41.384C69.631 41.954 69.631 41.902 70.564 41.902C73.464 41.902 73.364 42.002 73.364 45.528V59.719C73.364 60.444 73.209 60.496 71.085 60.496C69.841 60.496 69.785 60.596 69.785 61.118C69.785 61.64 69.885 61.636 71.085 61.636C71.81 61.636 73.572 61.377 75.333 61.377C76.991 61.377 80.461 61.636 81.186 61.636C82.533 61.636 82.586 61.688 82.586 61.118C82.586 60.651 82.534 60.496 81.186 60.496C77.353 60.496 77.198 60.496 77.198 57.958V47.286C77.198 45.111 78.337 43.868 81.341 43.868C83.932 43.868 84.554 45.992 85.279 45.992C85.59 45.992 86.418 43.713 86.418 43.192C86.418 41.846 84.036 40.705 83.102 40.705C80.668 40.705 78.234 43.399 77.457 43.399C77.25 43.399 77.198 43.037 77.198 42.571C77.198 42.415 77.298 41.271 77.298 41.017C77.298 40.602 77.091 40.447 76.883 40.447ZM180.314 40.499C179.589 40.499 178.19 40.706 177.414 40.706C176.014 40.706 175.082 40.606 173.684 40.606C172.752 40.606 172.596 40.606 172.596 41.28C172.596 41.798 172.803 41.799 174.409 41.799C176.17 41.799 176.169 42.109 176.169 43.663C176.169 44.388 174.305 49.776 173.062 53.505C172.233 55.94 171.923 56.665 171.562 56.665C171.355 56.665 170.733 55.785 170.318 54.697C167.211 46.719 165.864 44.906 165.864 43.404C165.864 42.213 166.175 41.904 167.418 41.904C168.506 41.904 168.718 41.852 168.718 41.386C168.718 40.815 168.51 40.608 167.418 40.608C165.761 40.608 163.947 40.763 162.497 40.763C161.254 40.763 160.892 40.663 159.442 40.663C158.51 40.663 158.355 40.922 158.355 41.389C158.355 41.856 158.406 41.907 159.442 41.907C160.374 41.907 160.737 42.166 162.032 45.274C164.881 52.008 169.024 61.591 169.024 62.161C169.024 63.715 164.57 69.827 162.705 72.161C160.944 74.389 158.505 74.7 158.505 75.011C158.505 75.27 159.023 75.529 159.905 75.529C161.044 75.529 161.405 75.115 162.96 74.908C164.1 74.752 164.722 74.7 165.292 73.561C166.949 70.142 169.281 65.946 172.544 58.021C176.636 48.076 178.916 41.86 180.055 41.86C180.677 41.86 181.401 41.601 181.401 41.135C181.401 40.565 181.142 40.512 180.314 40.512V40.499ZM58.339 41.173C60.722 41.173 63.778 45.006 63.778 46.301C63.778 46.612 63.727 46.715 63.157 46.819C59.272 47.441 56.475 48.119 53.781 48.119C53.159 48.119 53.159 48.067 53.159 47.808C53.159 47.082 54.403 41.178 58.339 41.178V41.173ZM118.739 41.173C121.123 41.173 124.179 45.006 124.179 46.301C124.179 46.612 124.127 46.715 123.557 46.819C119.672 47.441 116.875 48.119 114.182 48.119C113.56 48.119 113.56 48.067 113.56 47.808C113.56 47.082 114.803 41.178 118.739 41.178V41.173ZM148.617 41.173C151 41.173 154.057 45.006 154.057 46.301C154.057 46.612 154.005 46.715 153.435 46.819C149.55 47.441 146.753 48.119 144.059 48.119C143.437 48.119 143.437 48.067 143.437 47.808C143.437 47.082 144.68 41.178 148.617 41.178V41.173ZM30.779 43.3C37.27 43.3 41.679 47.469 41.679 52.829C41.679 58.01 38.344 61.108 33.819 61.108C31.913 61.108 30.008 60.691 29.352 59.976C28.817 59.376 28.637 56.046 28.637 55.509V44.848C28.637 43.538 29.114 43.3 30.782 43.3H30.779ZM60.311 67.612C60.0329 67.5836 59.752 67.6127 59.4857 67.6975C59.2193 67.7823 58.9733 67.9209 58.7628 68.1049C58.5524 68.2888 58.382 68.514 58.2623 68.7666C58.1426 69.0192 58.0761 69.2937 58.067 69.573C58.067 71.898 61.13 71.483 61.13 72.773C61.13 73.288 60.736 73.733 59.937 73.733C59.2959 73.6913 58.6793 73.471 58.157 73.097L57.652 73.987C58.3158 74.4735 59.1141 74.7421 59.937 74.756C60.2293 74.7836 60.5242 74.7531 60.8047 74.6662C61.0852 74.5793 61.3457 74.4378 61.5712 74.2497C61.7968 74.0616 61.9828 73.8308 62.1187 73.5705C62.2546 73.3102 62.3376 73.0256 62.363 72.733C62.363 70.377 59.3 71.086 59.3 69.518C59.3 69.003 59.644 68.629 60.311 68.629C60.8672 68.6498 61.4094 68.8097 61.888 69.094L62.323 68.224C61.7223 67.8362 61.0258 67.6226 60.311 67.607V67.612ZM84.73 67.612C82.648 67.612 81.718 69.098 81.718 71.181C81.718 73.162 82.638 74.76 84.73 74.76C86.822 74.76 87.743 73.16 87.743 71.181C87.743 69.1 86.812 67.612 84.73 67.612ZM100.963 67.612C98.881 67.612 97.863 69.112 97.863 71.191C97.863 73.314 98.794 74.76 100.927 74.76C101.863 74.7442 102.758 74.3756 103.434 73.728L102.817 72.94C102.327 73.4244 101.675 73.7095 100.987 73.74C99.703 73.74 99.096 72.821 99.096 71.183C99.096 69.545 99.744 68.636 100.967 68.636C101.592 68.6412 102.191 68.8831 102.645 69.313L103.272 68.504C102.64 67.9365 101.822 67.62 100.972 67.614L100.963 67.612ZM127.282 67.612C125.199 67.612 124.27 69.098 124.27 71.181C124.27 73.162 125.19 74.76 127.282 74.76C129.374 74.76 130.295 73.16 130.295 71.181C130.3 69.1 129.365 67.612 127.282 67.612V67.612ZM30.547 67.712L29.384 67.834V74.648H30.584V70H30.604L33.525 74.65H34.6V67.723H33.4V72.273H33.37L30.55 67.713L30.547 67.712ZM45.98 67.712V74.648H50.186L50.277 73.627H47.184V71.666H49.784V70.645H47.184V68.735H50.105V67.713H45.981L45.98 67.712ZM89.29 67.712V74.648H90.49V71.666H93.038V70.645H90.493V68.735H93.334V67.713H89.29V67.712ZM107.89 67.712L106.49 67.824L104.053 74.648H105.176L105.751 72.979H108.542L109.118 74.648H110.352L107.894 67.712H107.89ZM119.452 67.712V74.648H120.652V71.666H123.2V70.645H120.652V68.735H123.493V67.713H119.449L119.452 67.712ZM138.394 67.712L137.231 67.834V74.648H138.431V70H138.452L141.373 74.65H142.445V67.723H141.245V72.273H141.214L138.394 67.713V67.712ZM149.986 67.712L148.581 67.824L146.144 74.648H147.267L147.843 72.979H150.633L151.209 74.648H152.443L149.986 67.712V67.712ZM22.586 67.722V72.24C22.5509 72.5828 22.5934 72.9291 22.7101 73.2533C22.8269 73.5775 23.015 73.8713 23.2606 74.113C23.5061 74.3547 23.8029 74.5382 24.1289 74.6498C24.4549 74.7615 24.8018 74.7985 25.144 74.758C25.4862 74.7969 25.8329 74.7585 26.1583 74.6455C26.4837 74.5325 26.7796 74.3478 27.0241 74.1052C27.2685 73.8625 27.4554 73.568 27.5708 73.2435C27.6863 72.9189 27.7273 72.5726 27.691 72.23V67.723H26.491V72.313C26.491 73.173 26.128 73.738 25.147 73.738C24.166 73.738 23.792 73.172 23.792 72.303V67.723H22.592L22.586 67.722ZM36.312 67.722V74.647H37.512V67.723L36.312 67.722ZM38.697 67.722L41.083 74.647H42.407L44.807 67.722H43.622L42.3 71.6C42.3 71.6 42.169 71.994 41.825 73.177H41.764C41.43 71.994 41.299 71.59 41.299 71.59L39.974 67.729H38.7L38.697 67.722ZM51.867 67.722V74.647H53.067V71.877H53.643C54.078 71.877 54.331 72.282 54.533 72.696L55.493 74.647H56.818L55.493 72.147C55.4021 71.9497 55.2545 71.784 55.069 71.671V71.652C55.4603 71.5221 55.7988 71.2685 56.0333 70.9294C56.2678 70.5902 56.3856 70.184 56.369 69.772C56.3798 69.4792 56.326 69.1875 56.2117 68.9177C56.0973 68.6479 55.925 68.4065 55.707 68.2107C55.489 68.0148 55.2306 67.8693 54.9502 67.7843C54.6697 67.6993 54.374 67.6771 54.084 67.719H51.869L51.867 67.722ZM63.793 67.722V74.647H65V67.723L63.793 67.722ZM66.38 67.722V68.753H68.21V74.647H69.41V68.747H71.159L71.25 67.726L66.38 67.722ZM72.04 67.722L74.224 71.684V74.647H75.424V71.686L77.608 67.724H76.288L75.308 69.696C75.308 69.696 75.187 69.948 74.843 70.717H74.813C74.449 69.948 74.313 69.696 74.313 69.696L73.393 67.724H72.043L72.04 67.722ZM111.317 67.722V74.647H115.411L115.502 73.626H112.52V67.726L111.317 67.722ZM116.674 67.722V74.647H117.874V67.723L116.674 67.722ZM131.329 67.722V74.647H132.529V71.877H133.105C133.539 71.877 133.793 72.282 133.995 72.696L134.955 74.647H136.28L134.955 72.147C134.864 71.9497 134.716 71.784 134.531 71.671V71.652C134.922 71.5221 135.261 71.2685 135.495 70.9294C135.73 70.5902 135.848 70.184 135.831 69.772C135.842 69.4792 135.788 69.1875 135.674 68.9177C135.559 68.6479 135.387 68.4065 135.169 68.2107C134.951 68.0148 134.693 67.8693 134.412 67.7843C134.132 67.6993 133.836 67.6771 133.546 67.719H131.322L131.329 67.722ZM143.954 67.722V74.647H145.154V67.723L143.954 67.722ZM84.725 68.632C85.918 68.632 86.494 69.673 86.494 71.179C86.494 72.685 85.908 73.736 84.725 73.736C83.542 73.736 82.95 72.686 82.95 71.17C82.95 69.654 83.536 68.633 84.729 68.633L84.725 68.632ZM127.276 68.632C128.469 68.632 129.045 69.673 129.045 71.179C129.045 72.685 128.459 73.736 127.276 73.736C126.093 73.736 125.5 72.686 125.5 71.17C125.5 69.654 126.086 68.633 127.279 68.633L127.276 68.632ZM53.068 68.753H54.059C54.878 68.753 55.141 69.137 55.141 69.784C55.1594 69.9287 55.1447 70.0757 55.0981 70.2139C55.0516 70.3521 54.9743 70.4779 54.8721 70.582C54.7698 70.686 54.6454 70.7656 54.508 70.8146C54.3706 70.8636 54.224 70.8808 54.079 70.865H53.072V68.754L53.068 68.753ZM132.532 68.753H133.523C134.342 68.753 134.605 69.137 134.605 69.784C134.623 69.9287 134.609 70.0757 134.562 70.2139C134.516 70.3521 134.438 70.4779 134.336 70.582C134.234 70.686 134.109 70.7656 133.972 70.8146C133.835 70.8636 133.688 70.8808 133.543 70.865H132.532V68.754V68.753ZM107.112 68.935H107.132C107.607 70.37 107.688 70.593 107.688 70.593L108.224 72.12H106.03L106.566 70.593C106.566 70.593 106.651 70.372 107.116 68.936L107.112 68.935ZM149.212 68.935H149.232C149.707 70.37 149.789 70.593 149.789 70.593L150.324 72.12H148.13L148.667 70.593C148.667 70.593 148.747 70.372 149.212 68.936V68.935Z" fill="white"/>
</svg>
