<svg width="200" height="100" viewBox="0 0 200 100" fill="none" xmlns="http://www.w3.org/2000/svg">
<path d="M106.666 49.232C105.31 49.2757 103.983 49.6341 102.789 50.279V62.232C103.717 62.319 104.649 62.3544 105.581 62.338C109.381 62.338 109.897 60.6 109.897 58.173V52.463C109.9 50.671 109.3 49.232 106.666 49.232ZM81.459 48.58C78.826 48.58 78.224 50.026 78.224 51.816V52.822H84.69V51.816C84.69 50.026 84.09 48.58 81.459 48.58ZM32.629 61.022C32.5843 61.3141 32.6088 61.6126 32.7005 61.8934C32.7923 62.1743 32.9487 62.4297 33.1572 62.6391C33.3657 62.8484 33.6204 63.0059 33.9009 63.0988C34.1814 63.1917 34.4797 63.2175 34.772 63.174C36.0641 63.1328 37.326 62.7736 38.446 62.128V59.293H34.986C33.348 59.293 32.629 59.6 32.629 61.022ZM131.187 49.232C128.549 49.232 127.635 50.672 127.635 52.463V59C127.635 60.8 128.549 62.241 131.187 62.241C133.825 62.241 134.738 60.8 134.738 59V52.463C134.738 50.671 133.817 49.232 131.187 49.232ZM19.7 68.356H11.948V49.587H8.073V43.12H11.948V39.237C11.948 33.961 14.135 30.823 20.348 30.823H25.523V37.292H22.291C19.871 37.292 19.712 38.192 19.712 39.883L19.7 43.12H25.559L24.873 49.587H19.7V68.356ZM46.2 68.404H39.74L39.46 66.77C37.2249 68.0263 34.702 68.6809 32.138 68.67C27.399 68.67 24.876 65.504 24.876 61.125C24.876 55.959 27.82 54.115 33.086 54.115H38.446V53C38.446 50.364 38.146 49.589 34.089 49.589H27.459L28.107 43.122H35.354C44.254 43.122 46.202 45.933 46.202 53.052L46.2 68.404ZM68.178 50.062C65.8404 49.5525 63.4589 49.2709 61.067 49.221C57.591 49.221 56.541 49.988 56.541 52.939V58.522C56.541 61.474 57.591 62.244 61.067 62.244C63.4592 62.193 65.8407 61.9093 68.178 61.397V67.706C65.6389 68.334 63.0363 68.6695 60.421 68.706C52.1 68.7 48.787 64.326 48.787 58V53.471C48.787 47.141 52.096 42.756 60.421 42.756C63.0364 42.7912 65.6392 43.1267 68.178 43.756V50.062ZM92.444 58H78.225V58.521C78.225 61.473 79.276 62.243 82.751 62.243C85.788 62.2668 88.8197 61.9844 91.8 61.4V67.709C88.6225 68.428 85.3703 68.7638 82.113 68.709C73.788 68.709 70.477 64.331 70.477 58.009V52.829C70.477 47.296 72.934 42.763 81.465 42.763C89.996 42.763 92.45 47.243 92.45 52.829L92.444 58ZM117.65 58.119C117.65 64.232 115.903 68.69 105.319 68.69C101.869 68.6655 98.4286 68.3359 95.037 67.705V32.765L102.789 31.471V43.694C104.661 43.0566 106.628 42.7395 108.606 42.756C116.358 42.756 117.65 46.231 117.65 51.816V58.119ZM142.498 58.252C142.498 63.525 140.321 68.639 131.212 68.639C122.103 68.639 119.881 63.525 119.881 58.252V53.163C119.881 47.887 122.099 42.772 131.212 42.772C140.325 42.772 142.5 47.887 142.5 53.163L142.498 58.252ZM167.329 58.252C167.329 63.525 165.149 68.639 156.042 68.639C146.935 68.639 144.711 63.525 144.711 58.252V53.163C144.711 47.887 146.929 42.772 156.042 42.772C165.155 42.772 167.329 47.887 167.329 53.163V58.252ZM192.812 68.352H184.412L177.3 56.493V68.356H169.55V32.765L177.304 31.471V54.383L184.41 43.12H192.81L185.052 55.412L192.812 68.352ZM156.012 49.228C153.379 49.228 152.465 50.668 152.465 52.459V59C152.465 60.8 153.379 62.241 156.012 62.241C158.645 62.241 159.572 60.797 159.572 59V52.463C159.577 50.671 158.646 49.232 156.017 49.232L156.012 49.228Z" fill="white"/>
</svg>
