<svg width="200" height="100" viewBox="0 0 200 100" fill="none" xmlns="http://www.w3.org/2000/svg">
<g clip-path="url(#clip0)">
<path d="M85.8816 24.2005C86.8907 24.2005 87.7846 24.287 88.5919 24.6042C89.3992 24.8925 90.0047 25.2962 90.4949 25.8152C90.9851 26.3053 91.3022 27.0262 91.5906 27.7182C91.7924 28.4102 91.8789 29.2175 91.7924 30.0248L87.4674 30.8322C87.4674 30.1402 87.2656 29.6212 87.0637 29.131C86.7754 28.7273 86.4582 28.439 85.9681 28.439C85.6797 28.439 85.4779 28.5255 85.2761 28.6408C85.0742 28.7273 84.9877 28.9292 84.8724 29.0445C84.5841 29.3328 84.4687 29.5347 84.4687 29.7365C84.4687 29.9383 84.3822 30.1402 84.3822 30.2267V41.9907C84.3822 42.279 84.4687 42.5962 84.5841 42.8845C84.7859 43.1728 85.0742 43.2882 85.6797 43.2882C86.0834 43.2882 86.4871 43.2017 86.7754 42.9998C87.0637 42.798 87.1791 42.5097 87.1791 42.106V38.5883H85.6797V34.667H91.7059V41.8177C91.7059 43.7207 91.2157 45.1335 90.2066 46.1427C89.1974 47.1518 87.7846 47.642 85.8816 47.642C83.7767 47.642 82.2486 47.1518 81.3547 46.2292C80.4609 45.22 79.9419 43.8072 79.9419 41.9042V30.2267C79.9419 28.4102 80.4321 26.9108 81.4412 25.7863C82.4504 24.806 83.9497 24.2005 85.8816 24.2005ZM93.6377 47.4402V24.4023H104.22V28.7273H98.1934V33.6578H103.528V37.9828H98.1934V43.2017H104.22V47.5267H93.6377V47.4402ZM114.052 35.2725V24.4023H118.492V47.4402H114.657L111.947 40.6932L110.332 36.3682H110.13V47.4402H105.604V24.4023H109.525L112.235 31.034L113.735 35.2725H114.052ZM120.885 47.4402V24.4023H131.467V28.7273H125.441V33.6578H130.775V37.9828H125.441V43.2017H131.467V47.5267H120.914V47.4402H120.885ZM138.502 24.4023C139.396 24.4023 140.319 24.4888 141.126 24.6907C141.934 24.8925 142.626 25.2962 143.145 25.9017C143.75 26.3918 144.154 27.1127 144.442 28.0065C144.73 28.9003 144.932 29.9095 144.932 31.2358C144.932 32.8505 144.73 34.0615 144.327 35.0707C143.923 36.0798 143.231 36.8872 142.424 37.4927L145.74 47.469H141.097L138.387 38.5018H137.493V47.469H132.966V24.4312L138.502 24.4023ZM137.609 28.7273V34.148H138.301C138.589 34.148 138.906 34.148 139.194 34.0615C139.483 33.975 139.685 33.8597 140.002 33.6578C140.204 33.456 140.405 33.1677 140.492 32.764C140.578 32.3603 140.694 31.9567 140.694 31.3512C140.694 30.4573 140.492 29.8518 140.088 29.4482C139.685 29.0445 139.079 28.8427 138.387 28.8427H137.58C137.609 28.8138 137.609 28.7273 137.609 28.7273Z" fill="white"/>
<path d="M154.505 42.9133H151.074L150.382 47.4402H145.653L149.978 24.4023H155.514L159.954 47.4402H155.226L154.505 42.9133ZM152.198 35.0707L151.708 38.7037H153.813L153.409 35.0707L152.919 30.4285H152.688L152.198 35.0707ZM161.05 47.4402V24.4023H165.577V43.1152H171.603V47.4402H161.05ZM87.2944 70.478H83.8632L83.2577 75.0048H78.5291L82.8541 51.967H88.3901L92.7151 75.0048H87.9864L87.2944 70.478ZM85.0742 62.6353L84.5841 66.2683H86.6889L86.2852 62.6353L85.6797 57.9067H85.4779L85.0742 62.6353ZM105.286 68.2578C105.286 69.3535 105.2 70.2762 104.998 71.17C104.796 72.0638 104.508 72.7847 103.989 73.3902C103.585 73.9957 102.893 74.4858 102.172 74.803C101.365 75.0913 100.471 75.2932 99.2602 75.2932C98.1646 75.2932 97.2419 75.0913 96.5499 74.803C95.7425 74.5147 95.1371 74.111 94.7334 73.5055C94.2432 73.0153 93.9261 72.2945 93.7242 71.6025C93.5224 70.9105 93.4359 70.1032 93.4359 69.2958L97.9627 68.402C97.9627 69.2093 98.1646 69.9013 98.3664 70.305C98.5682 70.7087 98.9719 70.9105 99.5774 70.9105C99.8657 70.9105 100.183 70.824 100.385 70.7087C100.587 70.5068 100.673 70.305 100.788 70.1032C100.875 69.9013 100.99 69.613 100.99 69.2093V68.2002C100.99 67.71 100.99 67.3928 100.904 67.1045C100.817 66.8162 100.702 66.499 100.615 66.2972C100.414 66.0953 100.212 65.8935 99.9234 65.6917C99.6351 65.4898 99.3179 65.4033 98.8277 65.2015C97.7321 64.7113 96.8094 64.3077 96.1174 63.7887C95.4254 63.2985 94.9064 62.7795 94.5027 62.174C94.0991 61.5685 93.8972 61.0783 93.8107 60.3575C93.7242 59.752 93.6089 59.06 93.6089 58.2527C93.6089 57.3588 93.6954 56.4362 93.8972 55.6288C94.0991 54.8215 94.5027 54.1295 94.9064 53.524C95.3966 52.9185 96.002 52.5148 96.7229 52.2265C97.5302 51.9382 98.424 51.7363 99.4332 51.7363C100.529 51.7363 101.538 51.9382 102.259 52.2265C102.951 52.6302 103.556 53.0338 104.075 53.6393C104.479 54.2448 104.767 54.8503 104.969 55.5423C105.171 56.2343 105.258 56.8398 105.258 57.5607L100.817 58.5698V57.6183C100.817 57.33 100.731 57.1282 100.615 56.811C100.529 56.6092 100.327 56.4073 100.212 56.3208C100.01 56.2343 99.8081 56.119 99.4044 56.119C99.1161 56.119 98.9142 56.2055 98.7124 56.3208C98.5105 56.4073 98.424 56.6092 98.3087 56.811C98.2222 57.0128 98.1069 57.2147 98.1069 57.503V58.3103C98.1069 58.5987 98.1069 58.9158 98.1934 59.1177C98.1934 59.3195 98.3952 59.6078 98.4817 59.8097C98.6836 60.0115 98.8854 60.2133 99.289 60.4152L100.702 61.1072C101.711 61.5108 102.605 62.001 103.21 62.4047C103.816 62.8948 104.306 63.4138 104.623 63.904C104.912 64.3942 105.113 65.115 105.229 65.807C105.286 66.5567 105.286 67.364 105.286 68.2578ZM118.694 68.2578C118.694 69.3535 118.607 70.2762 118.406 71.17C118.204 72.0638 117.915 72.7847 117.396 73.3902C116.993 73.9957 116.301 74.4858 115.58 74.803C114.773 75.0913 113.879 75.2932 112.668 75.2932C111.572 75.2932 110.649 75.0913 109.957 74.803C109.15 74.5147 108.545 74.111 108.141 73.5055C107.651 73.0153 107.334 72.2945 107.132 71.6025C106.93 70.9105 106.843 70.1032 106.843 69.2958L111.37 68.402C111.37 69.2093 111.572 69.9013 111.774 70.305C111.976 70.7087 112.379 70.9105 112.985 70.9105C113.273 70.9105 113.59 70.824 113.792 70.7087C113.994 70.5068 114.081 70.305 114.196 70.1032C114.282 69.9013 114.398 69.613 114.398 69.2093V68.2002C114.398 67.71 114.398 67.3928 114.311 67.1045C114.225 66.8162 114.109 66.499 114.023 66.2972C113.821 66.0953 113.619 65.8935 113.331 65.6917C113.043 65.4898 112.725 65.4033 112.235 65.2015C111.14 64.7113 110.217 64.3077 109.525 63.7887C108.833 63.2985 108.314 62.7795 107.91 62.174C107.507 61.5685 107.305 61.0783 107.218 60.3575C107.132 59.752 107.016 59.06 107.016 58.2527C107.016 57.3588 107.103 56.4362 107.305 55.6288C107.507 54.8215 107.91 54.1295 108.314 53.524C108.804 52.9185 109.41 52.5148 110.13 52.2265C110.938 51.9382 111.832 51.7363 112.841 51.7363C113.936 51.7363 114.946 51.9382 115.666 52.2265C116.358 52.6302 116.964 53.0338 117.483 53.6393C117.887 54.2448 118.175 54.8503 118.377 55.5423C118.579 56.2343 118.665 56.8398 118.665 57.5607L114.225 58.5698V57.6183C114.225 57.33 114.138 57.1282 114.023 56.811C113.936 56.6092 113.735 56.4073 113.619 56.3208C113.417 56.2343 113.216 56.119 112.812 56.119C112.524 56.119 112.322 56.2055 112.12 56.3208C111.918 56.4073 111.832 56.6092 111.716 56.811C111.63 57.0128 111.514 57.2147 111.514 57.503V58.3103C111.514 58.5987 111.514 58.9158 111.601 59.1177C111.601 59.3195 111.803 59.6078 111.889 59.8097C112.091 60.0115 112.293 60.2133 112.697 60.4152L114.109 61.1072C115.119 61.5108 116.012 62.001 116.618 62.4047C117.223 62.8948 117.714 63.4138 118.031 63.904C118.319 64.3942 118.521 65.115 118.636 65.807C118.579 66.5567 118.694 67.364 118.694 68.2578ZM120.482 75.0048V51.967H131.063V56.292H125.037V61.2225H130.371V65.5475H125.037V70.7663H131.063V75.0048H120.482ZM139.223 70.478L138.214 67.5658L137.205 64.1347H137.003V75.0048H132.476V51.967H136.715L139.021 58.1085L140.521 62.6353H140.723L142.337 57.9932L144.557 51.967H148.796V75.0048H144.269V64.25H144.183L143.087 67.7677L142.193 70.478H139.223ZM159.954 62.9237C160.445 63.1255 160.964 63.3273 161.252 63.731C161.54 64.0193 161.857 64.423 162.059 64.8267C162.261 65.2303 162.463 65.7205 162.463 66.2395C162.549 66.7297 162.549 67.2487 162.549 67.7388C162.549 70.2473 162.059 72.0638 160.935 73.1595C159.839 74.3705 158.224 74.8607 156.091 74.8607H150.958V51.9093H156.177C158.196 51.9093 159.81 52.3995 160.819 53.524C161.829 54.6197 162.319 56.2343 162.319 58.368C162.319 58.8582 162.319 59.2618 162.232 59.7808C162.146 60.271 162.03 60.6747 161.829 61.0783C161.627 61.482 161.338 61.7703 161.021 62.174C160.762 62.5488 160.358 62.7507 159.954 62.9237ZM158.138 58.5122C158.138 57.6183 157.936 57.0128 157.648 56.6957C157.359 56.4073 156.754 56.292 156.033 56.292H155.543V60.8188H156.148C157.532 60.8188 158.138 60.1268 158.138 58.5122ZM158.34 67.5658C158.34 66.672 158.138 65.9512 157.85 65.6628C157.561 65.2592 157.042 65.0573 156.437 65.0573H155.629V70.7952H156.437C156.84 70.7952 157.244 70.7087 157.446 70.5933C157.734 70.3915 157.85 70.1897 158.051 69.9013C158.138 69.613 158.253 69.2958 158.34 68.8922V67.5658ZM165.087 75.0048V51.967H169.614V70.6798H175.64V75.0048H165.087ZM180.368 60.4152L181.176 56.5803L182.185 52.0535H186.914L182.473 65.7493V75.0048H177.946V65.634L173.42 51.9382H178.264L179.359 56.5803L180.167 60.4152H180.368Z" fill="white"/>
<path fill-rule="evenodd" clip-rule="evenodd" d="M71.09 47.7574C69.9655 47.8439 69.0717 48.7665 69.0717 49.8622C69.0717 50.9579 69.9655 51.967 71.09 51.794C71.09 53.005 70.8882 54.1295 70.6863 55.2252C69.5907 55.0234 68.4662 55.6289 68.1778 56.7245C67.8895 57.8202 68.495 58.9447 69.5907 59.2331C69.187 60.3576 68.7833 61.4532 68.2932 62.4624C67.284 61.9722 66.073 62.2606 65.4675 63.2697C64.862 64.2789 65.1503 65.4899 66.1595 66.0954L64.0547 68.8057C63.2473 67.9984 61.9498 67.9984 61.1425 68.8057C60.3352 69.6131 60.3352 70.9105 61.1425 71.7179C60.2487 72.5252 59.326 73.2172 58.4322 73.8227C57.8267 72.9289 56.6157 72.5252 55.6065 73.1307C54.7127 73.7362 54.309 74.9472 54.9145 75.9564C53.9053 76.4466 52.8962 76.8502 51.8005 77.2539C51.5122 76.2447 50.3877 75.5527 49.292 75.8411C48.2828 76.1294 47.5908 77.2539 47.8792 78.3495C46.7835 78.5514 45.659 78.6667 44.5633 78.7532C44.5633 77.6287 43.6407 76.7349 42.545 76.7349C41.4205 76.7349 40.5267 77.6576 40.5267 78.7532C39.431 78.7532 38.3065 78.5514 37.2108 78.3495C37.4992 77.2539 36.8937 76.1294 35.798 75.8411C34.7023 75.5527 33.5778 76.1582 33.2895 77.2539C32.1938 76.8502 31.1847 76.4466 30.1755 75.9564C30.781 74.9472 30.4927 73.7362 29.4835 73.1307C28.4743 72.6406 27.2633 72.9289 26.6578 73.9381C25.6487 73.2461 24.7548 72.5252 23.9475 71.8332C24.7548 71.0259 24.7548 69.7284 23.9475 68.921C23.1402 68.1137 21.8427 68.1137 21.0353 68.921C20.228 68.0272 19.536 67.1046 18.9305 66.2107C19.8243 65.6052 20.228 64.3942 19.6225 63.385C19.017 62.3759 17.806 61.9722 16.7968 62.5777C16.3067 61.4532 15.903 60.444 15.4993 59.3484C16.5085 59.06 17.2005 57.9356 16.9122 56.8399C16.6238 55.8307 15.4993 55.1387 14.4037 55.427C14.2018 54.3025 14.0865 53.0915 14 51.9959C15.1245 51.9959 16.0183 51.0732 16.0183 49.9775C16.0183 48.7665 15.0957 47.8727 14 47.8727C14 46.6617 14.2018 45.5372 14.4037 44.4415C15.4993 44.7299 16.6238 44.1244 16.9122 43.0287C17.2005 41.933 16.595 40.8085 15.4993 40.5202C15.5881 40.2983 15.6769 40.0721 15.7666 39.8437C16.0847 39.0333 16.4145 38.1935 16.7968 37.4062C17.806 37.8964 19.017 37.608 19.6225 36.5989C20.228 35.5897 19.9397 34.3787 18.9305 33.7732L21.0353 31.0629C21.8427 31.8702 23.1402 31.8702 23.9475 31.0629C24.7548 30.2555 24.7548 28.958 23.9475 28.1507C24.8413 27.3434 25.764 26.6514 26.6578 26.0459C27.2633 26.9397 28.4743 27.3434 29.4835 26.7379C30.3773 26.1324 30.781 24.9214 30.1755 23.9122C31.1847 23.4221 32.1938 23.0184 33.2895 22.6147C33.5778 23.6239 34.7023 24.3159 35.798 24.0275C36.9225 23.7392 37.4992 22.6147 37.2108 21.5191C38.3065 21.3172 39.431 21.2019 40.5267 21.1154C40.5267 22.3264 41.4493 23.2202 42.545 23.2202C43.6695 23.2202 44.5633 22.2111 44.5633 21.1154C45.659 21.1154 46.7835 21.3172 47.8792 21.5191C47.5908 22.6147 48.1963 23.7392 49.292 24.0275C50.3877 24.3159 51.5122 23.7104 51.8005 22.6147C52.8962 23.0184 53.9053 23.4221 54.9145 23.9122C54.309 24.9214 54.5973 26.1324 55.6065 26.7379C56.6157 27.3434 57.8267 27.055 58.4322 26.0459C59.4413 26.7379 60.3352 27.4587 61.1425 28.1507C60.3352 28.958 60.3352 30.2555 61.1425 31.0629C61.9498 31.8702 63.2473 31.8702 64.0547 31.0629C64.862 31.9567 65.554 32.8794 66.1595 33.7732C65.2657 34.3787 64.862 35.5897 65.4675 36.5989C66.073 37.4927 67.284 37.8964 68.2932 37.2909C68.7833 38.3 69.187 39.3092 69.5907 40.4049C68.5815 40.6932 67.8895 41.8177 68.1778 42.9134C68.4662 43.9225 69.5907 44.6145 70.6863 44.3262C70.8882 45.4507 71.0035 46.6617 71.09 47.7574ZM34.6447 32.937C32.7417 32.937 31.2135 33.5425 30.1178 34.6382C29.1087 35.7339 28.6185 37.262 28.6185 39.165V60.79C28.6185 62.8084 29.1087 64.2212 30.0313 65.2304C31.0405 66.2395 32.5398 66.7297 34.5582 66.7297C36.4612 66.7297 37.874 66.2395 38.8832 65.2304C39.8923 64.2212 40.3825 62.7219 40.3825 60.79V50.7272H34.3563V54.7639H35.8557V61.1072C35.8557 61.5109 35.7692 61.7992 35.452 62.001C35.1637 62.2029 34.8465 62.4047 34.3563 62.4047C33.7508 62.4047 33.4625 62.3182 33.2607 62.001C33.2471 61.9558 33.2327 61.9096 33.2183 61.8629C33.1407 61.6135 33.0588 61.3503 33.0588 61.1072V39.0785C33.0588 38.8767 33.0588 38.7902 33.1453 38.473C33.1453 38.2712 33.2318 38.0694 33.3472 37.8675C33.3932 37.7601 33.472 37.6853 33.5529 37.6085C33.6241 37.5409 33.6969 37.4718 33.7508 37.3774C33.7826 37.3638 33.8144 37.3494 33.8465 37.335C34.0183 37.2574 34.1999 37.1755 34.4428 37.1755H34.5293C34.8177 37.1755 35.0195 37.262 35.2213 37.3774C35.3952 37.4519 35.4834 37.6119 35.5783 37.7838L35.5785 37.7843C35.5937 37.8119 35.6091 37.8397 35.625 37.8675C35.6423 37.9079 35.6607 37.9481 35.6791 37.9884L35.6792 37.9886C35.753 38.1501 35.8268 38.3116 35.8268 38.473C35.8268 38.574 35.8485 38.6749 35.8701 38.7758C35.8917 38.8767 35.9133 38.9776 35.9133 39.0785V44.1244H40.4402V39.0785C40.4402 37.1755 39.95 35.7627 38.9408 34.5517C38.1623 33.5425 36.663 32.937 34.6447 32.937ZM46.2357 33.1389H51.7717L56.0967 66.5567H51.368L50.3588 58.3969H47.6197L46.6105 66.5567H41.7953L46.2357 33.1389ZM47.0142 52.4572C47.0142 53.5817 47.9368 54.4755 49.0325 54.4755C50.157 54.4755 51.0508 53.5817 51.0508 52.4572C51.0508 51.3327 50.1282 50.4389 49.0325 50.4389C47.908 50.4389 47.0142 51.3615 47.0142 52.4572Z" fill="white"/>
</g>
<defs>
<clipPath id="clip0">
<rect x="14" y="21" width="173" height="57.955" fill="white"/>
</clipPath>
</defs>
</svg>
