<svg width="200" height="100" viewBox="0 0 200 100" fill="none" xmlns="http://www.w3.org/2000/svg">
<path d="M88.4539 51.089C88.4618 53.65 87.7096 56.1557 86.2926 58.2889C84.8756 60.4222 82.8574 62.0869 80.4936 63.0725C78.1299 64.058 75.5268 64.32 73.0141 63.8252C70.5013 63.3304 68.1919 62.1012 66.3782 60.2931C64.5645 58.485 63.3281 56.1794 62.8256 53.6682C62.323 51.157 62.5769 48.5532 63.5551 46.1864C64.5334 43.8195 66.1919 41.7962 68.3207 40.3726C70.4495 38.9489 72.9529 38.189 75.5139 38.189C77.2173 38.1621 78.9087 38.4771 80.4882 39.1154C82.0676 39.7536 83.5031 40.7022 84.7095 41.9049C85.916 43.1077 86.869 44.5401 87.5121 46.1176C88.1553 47.6951 88.4755 49.3856 88.4539 51.089V51.089ZM82.7899 51.089C82.7899 46.448 79.4229 43.273 75.5149 43.273C71.6069 43.273 68.2399 46.448 68.2399 51.089C68.2399 55.683 71.6069 58.905 75.5149 58.905C79.4229 58.905 82.7889 55.677 82.7889 51.089H82.7899Z" fill="white"/>
<path d="M116.368 51.089C116.376 53.65 115.624 56.1557 114.207 58.2889C112.79 60.4222 110.771 62.0869 108.408 63.0725C106.044 64.058 103.441 64.32 100.928 63.8252C98.4154 63.3304 96.106 62.1012 94.2923 60.2931C92.4786 58.485 91.2422 56.1794 90.7396 53.6682C90.2371 51.157 90.491 48.5532 91.4692 46.1864C92.4474 43.8195 94.1059 41.7962 96.2348 40.3726C98.3636 38.9489 100.867 38.189 103.428 38.189C105.131 38.1621 106.823 38.4771 108.402 39.1154C109.982 39.7536 111.417 40.7022 112.624 41.9049C113.83 43.1077 114.783 44.5401 115.426 46.1176C116.069 47.6951 116.39 49.3856 116.368 51.089ZM110.704 51.089C110.704 46.448 107.337 43.273 103.429 43.273C99.521 43.273 96.154 46.448 96.154 51.089C96.154 55.683 99.521 58.905 103.429 58.905C107.337 58.905 110.7 55.677 110.7 51.089H110.704Z" fill="white"/>
<path d="M143.12 38.969V62.126C143.12 71.652 137.502 75.543 130.861 75.543C128.415 75.5585 126.021 74.8434 123.984 73.4894C121.947 72.1354 120.361 70.2041 119.428 67.943L124.36 65.89C124.866 67.2124 125.755 68.3541 126.912 69.1693C128.07 69.9845 129.444 70.4363 130.86 70.467C135.111 70.467 137.746 67.844 137.746 62.907V61.051H137.546C136.695 62.0043 135.647 62.7605 134.473 63.2667C133.3 63.773 132.03 64.0171 130.753 63.982C127.425 63.8749 124.27 62.4718 121.961 60.0718C119.653 57.6719 118.373 54.465 118.395 51.135C118.395 43.854 124.304 38.19 130.753 38.19C132.025 38.1596 133.29 38.4012 134.461 38.8987C135.633 39.3963 136.684 40.1382 137.546 41.075H137.746V38.975H143.125L143.12 38.969ZM138.142 51.135C138.142 46.593 135.112 43.272 131.256 43.272C127.348 43.272 124.074 46.593 124.074 51.135C124.074 55.635 127.348 58.905 131.256 58.905C135.112 58.9 138.142 55.631 138.142 51.135V51.135Z" fill="white"/>
<path d="M151.989 25.4V63.2H146.464V25.4H151.989Z" fill="white"/>
<path d="M173.518 55.334L177.918 58.265C176.74 60.0327 175.141 61.4804 173.265 62.4781C171.39 63.4759 169.296 63.9927 167.171 63.982C165.475 64.0066 163.791 63.689 162.22 63.0482C160.65 62.4073 159.224 61.4564 158.03 60.2522C156.835 59.0481 155.895 57.6154 155.266 56.0397C154.638 54.4641 154.333 52.778 154.371 51.082C154.371 43.411 159.89 38.182 166.537 38.182C173.231 38.182 176.505 43.509 177.575 46.388L178.162 47.854L160.916 55C161.447 56.2025 162.327 57.2178 163.442 57.9146C164.556 58.6113 165.854 58.9574 167.168 58.908C168.446 58.915 169.703 58.5894 170.816 57.9633C171.93 57.3372 172.861 56.4321 173.519 55.337L173.518 55.334ZM159.985 50.693L171.511 45.907C171.069 45.0321 170.38 44.3065 169.529 43.8205C168.678 43.3345 167.703 43.1097 166.725 43.174C165.786 43.2166 164.865 43.4459 164.015 43.8486C163.166 44.2513 162.405 44.8193 161.777 45.5193C161.15 46.2193 160.668 47.0374 160.36 47.9257C160.053 48.8141 159.925 49.7548 159.985 50.693V50.693Z" fill="white"/>
<path d="M41.662 47.733V42.261H60.1C60.2914 43.3504 60.3828 44.455 60.373 45.561C60.373 49.667 59.251 54.744 55.633 58.361C52.115 62.025 47.619 63.979 41.664 63.979C36.3241 63.9822 31.1977 61.8821 27.3947 58.1336C23.5916 54.385 21.4179 49.2894 21.344 43.95C21.4179 38.6106 23.5916 33.515 27.3947 29.7665C31.1977 26.0179 36.3241 23.9179 41.664 23.921C44.2039 23.8812 46.7262 24.3489 49.083 25.2966C51.4398 26.2443 53.5837 27.653 55.389 29.44L51.531 33.3C48.8836 30.7506 45.337 29.3491 41.662 29.4C37.8376 29.4549 34.1884 31.0127 31.5033 33.7366C28.8182 36.4605 27.313 40.1317 27.313 43.9565C27.313 47.7813 28.8182 51.4525 31.5033 54.1764C34.1884 56.9003 37.8376 58.4581 41.662 58.513C43.5346 58.5885 45.4022 58.2703 47.1441 57.5791C48.8861 56.8879 50.4637 55.8389 51.775 54.5C53.4928 52.6365 54.537 50.2513 54.741 47.725L41.662 47.733Z" fill="white"/>
</svg>
