<svg width="200" height="100" viewBox="0 0 200 100" fill="none" xmlns="http://www.w3.org/2000/svg">
<g clip-path="url(#clip0)">
<g clip-path="url(#clip1)">
<path d="M30.4019 32.0425C21.9387 33.8239 15.569 41.2693 15.569 50.1652C15.569 59.9342 23.2485 67.9566 32.9476 68.6475V60.6801V60.4281C27.8172 59.767 23.8409 55.4184 23.8409 50.1652C23.8409 44.9121 27.8172 40.5637 32.9476 39.9024V37.3642C26.4096 38.0383 21.2952 43.5217 21.2952 50.1652C21.2952 55.9171 25.1299 60.7969 30.4019 62.4413V65.7034C23.3549 63.9707 18.1149 57.6656 18.1149 50.1652C18.1149 41.7859 24.6536 34.8934 32.9476 34.2081V26.1578C20.1747 26.8576 10 37.3575 10 50.1652C10 62.9731 20.1747 73.4732 32.9476 74.1729V71.6462C21.5798 70.9496 12.5459 61.5839 12.5459 50.1652C12.5459 39.6144 20.2613 30.8217 30.4019 28.9961" fill="white"/>
<path d="M35.6262 26.0001V28.5468C47.0855 29.2492 56.192 38.6903 56.192 50.2006C56.192 60.8365 48.4148 69.6996 38.1924 71.54V68.4696C46.7239 66.6734 53.1448 59.1683 53.1448 50.2006C53.1448 40.3535 45.4037 32.2671 35.6262 31.57V39.8553C40.7983 40.5219 44.8061 44.9053 44.8061 50.2006C44.8061 55.4959 40.7983 59.8794 35.6262 60.5459V63.1046C42.217 62.4251 47.3724 56.8976 47.3724 50.2006C47.3724 44.4027 43.5069 39.4838 38.1924 37.826V34.5377C45.2961 36.2846 50.5784 42.6403 50.5784 50.2006C50.5784 58.6474 43.987 65.5954 35.6262 66.2862V74.4011C48.5019 73.6961 58.7585 63.1115 58.7585 50.2006C58.7585 37.2898 48.5019 26.7055 35.6262 26.0001" fill="white"/>
<path d="M80.3566 45.8882V37.684H70.607V45.8882H67.3198V27.1478H70.607V34.7903H80.3566V27.1478H83.6438V45.8882H80.3566Z" fill="white"/>
<path d="M95.1021 30.435L91.7306 39.3699H98.4736L95.1021 30.435ZM100.778 45.8882L99.4011 42.2638H90.8036L89.4268 45.8882H85.6895L93.0509 27.1478H97.1532L104.515 45.8882H100.778Z" fill="white"/>
<path d="M104.805 36.5319C104.805 30.7439 109.104 26.8388 114.639 26.8388C118.404 26.8388 120.764 28.7772 122.14 31.025L119.359 32.4861C118.46 30.9127 116.633 29.7605 114.639 29.7605C110.93 29.7605 108.176 32.5704 108.176 36.5319C108.176 40.4375 110.93 43.3035 114.639 43.3035C116.633 43.3035 118.46 42.1232 119.359 40.578L122.168 41.983C120.736 44.2306 118.404 46.2254 114.639 46.2254C109.104 46.2254 104.805 42.2918 104.805 36.5319" fill="white"/>
<path d="M136.001 45.8882L129.736 37.965L128.078 39.9036V45.8882H124.791V27.1478H128.078V36.0542L135.411 27.1478H139.485L131.871 35.97L140.075 45.8882H136.001Z" fill="white"/>
<path d="M78.3334 60.362C78.3334 58.5638 76.9846 57.4118 75.1306 57.4118H70.607V63.3684H75.1306C76.9846 63.3684 78.3334 62.1882 78.3334 60.362V60.362ZM78.0244 73.2585L73.8942 66.2624H70.607V73.2585H67.3198V54.5178H75.5519C79.2609 54.5178 81.7054 56.906 81.7054 60.3899C81.7054 63.7056 79.5135 65.5318 77.2377 65.8971L81.8457 73.2585H78.0244" fill="white"/>
<path d="M84.9788 73.2585V54.5178H97.8193V57.4118H88.2659V62.2445H97.6226V65.1384H88.2659V70.3643H97.8193V73.2585H84.9788" fill="white"/>
<path d="M108.918 57.8052L105.546 66.7403H112.29L108.918 57.8052ZM114.594 73.2585L113.217 69.634H104.619L103.243 73.2585H99.5056L106.867 54.5178H110.969L118.33 73.2585H114.594" fill="white"/>
<path d="M118.621 63.9021C118.621 58.1142 122.919 54.2086 128.455 54.2086C132.219 54.2086 134.58 56.1475 135.956 58.3952L133.175 59.8562C132.275 58.2827 130.449 57.1308 128.455 57.1308C124.746 57.1308 121.992 59.9405 121.992 63.9021C121.992 67.8075 124.746 70.6739 128.455 70.6739C130.449 70.6739 132.275 69.4933 133.175 67.9482L135.985 69.3529C134.551 71.6008 132.219 73.5956 128.455 73.5956C122.919 73.5956 118.621 69.662 118.621 63.9021" fill="white"/>
<path d="M143.228 73.2585V57.4118H137.553V54.5178H152.192V57.4118H146.515V73.2585H143.228Z" fill="white"/>
<path d="M168.951 63.9021C168.951 60.0248 166.507 57.1308 162.742 57.1308C158.949 57.1308 156.533 60.0248 156.533 63.9021C156.533 67.7512 158.949 70.6739 162.742 70.6739C166.507 70.6739 168.951 67.7512 168.951 63.9021ZM153.161 63.9021C153.161 58.3109 157.123 54.2086 162.742 54.2086C168.333 54.2086 172.323 58.3109 172.323 63.9021C172.323 69.4933 168.333 73.5956 162.742 73.5956C157.123 73.5956 153.161 69.4933 153.161 63.9021" fill="white"/>
<path d="M186.487 60.362C186.487 58.5638 185.139 57.4118 183.284 57.4118H178.761V63.3684H183.284C185.139 63.3684 186.487 62.1882 186.487 60.362V60.362ZM186.178 73.2585L182.048 66.2624H178.761V73.2585H175.474V54.5178H183.706C187.415 54.5178 189.859 56.906 189.859 60.3899C189.859 63.7056 187.668 65.5318 185.392 65.8971L190 73.2585H186.178" fill="white"/>
</g>
</g>
<defs>
<clipPath id="clip0">
<rect width="135" height="36.3008" transform="matrix(1.33333 0 0 -1.33333 10 74.401)" fill="white"/>
</clipPath>
<clipPath id="clip1">
<rect width="1352.17" height="363.857" transform="matrix(0.133333 0 0 -0.133333 10 74.513)" fill="white"/>
</clipPath>
</defs>
</svg>
