<svg width="200" height="100" viewBox="0 0 200 100" fill="none" xmlns="http://www.w3.org/2000/svg">
<path d="M120.19 81.986C119.71 81.8435 119.204 81.8103 118.71 81.8888C118.216 81.9674 117.745 82.1557 117.333 82.44C117.156 82.5463 116.996 82.6773 116.857 82.829C116.833 82.8678 116.823 82.9133 116.827 82.9585C116.831 83.0038 116.85 83.0464 116.881 83.08C117.076 83.409 117.593 84.24 118.062 84.995L118.813 86.195C119.443 87.208 119.913 87.938 120.03 88.115C120.176 88.3645 120.358 88.5909 120.571 88.787C120.787 88.904 121.222 88.911 121.851 88.518C122.205 88.3353 122.514 88.0765 122.756 87.7603C122.998 87.4441 123.167 87.0783 123.251 86.689C123.342 85.6866 123.052 84.6868 122.438 83.889C121.94 83.0063 121.143 82.3312 120.19 81.986V81.986ZM86.4819 85.831L84.6659 88.092C84.6399 88.13 84.6369 88.165 84.6719 88.178L86.2789 88.81C86.3219 88.827 86.3429 88.798 86.3469 88.765L86.5789 85.865C86.5859 85.819 86.5979 85.765 86.5719 85.754C86.5459 85.743 86.5069 85.793 86.4819 85.831ZM111.247 85.294C111.087 85.3427 110.934 85.4145 110.795 85.507C110.742 85.551 110.739 85.599 110.77 85.683L111.946 88.897C111.988 89.012 112.022 89.049 112.095 89.057C112.338 89.0526 112.578 89.0052 112.804 88.917C113.156 88.788 113.255 88.703 113.364 88.508C113.479 88.2245 113.533 87.9198 113.523 87.614C113.512 87.3082 113.437 87.008 113.303 86.733C112.754 85.233 111.767 85.1 111.247 85.294ZM105.417 88.407C105.402 88.365 105.385 88.307 105.356 88.315C105.327 88.323 105.318 88.377 105.315 88.424L104.875 91.29C104.875 91.337 104.886 91.367 104.924 91.362L106.631 91.104C106.677 91.097 106.682 91.062 106.668 91.031L105.417 88.407ZM74.6169 74.579C75.1097 74.0504 75.7043 73.6269 76.3649 73.334L76.4209 73.312H76.4819C76.6555 73.3212 76.829 73.2933 76.9909 73.23C76.895 73.0728 76.7681 72.9367 76.6179 72.83C74.8069 71.312 73.5899 72.63 73.4589 72.785L68.9999 78.16C69.3038 78.2771 69.5802 78.4556 69.8118 78.6845C70.0434 78.9133 70.2253 79.1876 70.3459 79.49L74.6179 74.579H74.6169ZM93.2169 86.243C93.0541 86.1982 92.8857 86.177 92.7169 86.18C92.6469 86.188 92.6169 86.229 92.6009 86.318L91.8759 89.66C91.8499 89.781 91.8589 89.829 91.9159 89.875C92.1234 90.0004 92.3511 90.0887 92.5889 90.136C92.7007 90.1789 92.8204 90.197 92.9398 90.1892C93.0593 90.1815 93.1756 90.148 93.2809 90.091C93.5299 89.9128 93.7387 89.6842 93.8938 89.4201C94.0488 89.156 94.1467 88.8623 94.1809 88.558C94.5259 87 93.7609 86.359 93.2199 86.243H93.2169ZM123.607 72.565C122.836 73.026 122.724 73.255 122.707 73.305C122.959 73.4499 123.244 73.5261 123.535 73.526H123.586L123.632 73.542C124.071 73.6858 124.482 73.9051 124.846 74.19C125.483 74.69 127.656 77.165 129.338 79.123C129.656 78.6359 130.135 78.2768 130.692 78.109L126.723 73.092C126.323 72.691 125.808 72.4245 125.25 72.3295C124.691 72.2346 124.117 72.3158 123.607 72.562V72.565ZM137.18 74.646L130.822 68.592C130.734 68.5 128.674 66.343 126.789 67.963C126.576 68.1668 126.442 68.4391 126.41 68.732C126.409 69.0196 126.518 69.2967 126.715 69.506C127.082 69.731 127.413 70.0117 127.694 70.338C128.129 70.414 128.894 70.402 128.772 69.312C128.772 69.312 128.802 68.761 128.338 68.848C128.338 68.848 127.621 68.448 128.859 68.335C128.859 68.335 131.032 69.096 128.316 70.898C128.316 70.898 128.007 71.132 127.128 70.891C123.757 70.36 122.233 72.033 122.148 72.127C121.683 72.4903 121.377 73.021 121.298 73.606C121.298 73.6508 121.301 73.6956 121.307 73.74C121.347 73.9202 121.424 74.09 121.534 74.2386C121.643 74.3872 121.783 74.5113 121.943 74.603C122.12 74.5707 122.301 74.5742 122.477 74.6134C122.653 74.6526 122.818 74.7266 122.965 74.831C123.565 75.367 123.814 75.882 123.696 76.355C123.521 77.067 122.617 77.313 122.513 77.338L122.452 77.353L122.388 77.347C121.615 77.2546 120.834 77.4149 120.16 77.804C119.977 77.956 101.602 92.86 79.7999 77.656C79.0914 77.242 78.2565 77.0999 77.4509 77.256H77.3979L77.3459 77.245C77.1058 77.199 76.8796 77.0977 76.6854 76.9491C76.4912 76.8005 76.3342 76.6088 76.2269 76.389C76.1672 76.1537 76.1711 75.9067 76.2382 75.6733C76.3053 75.44 76.4333 75.2287 76.6089 75.061C76.6469 75.003 77.0169 74.519 78.0549 74.687C78.1914 74.672 78.3226 74.6261 78.4386 74.5526C78.5545 74.4791 78.6521 74.38 78.7239 74.263C78.7609 74.1802 78.7806 74.0907 78.7819 74C78.7227 73.4989 78.5238 73.0245 78.2079 72.631C78.1829 72.604 75.7629 69.978 72.9329 70.888C72.6394 71.0079 72.3237 71.0638 72.0069 71.052C71.9669 71.052 71.9299 71.052 71.8889 71.052V71.036C71.4799 70.9566 71.1036 70.7577 70.8078 70.4643C70.5119 70.1709 70.3097 69.7964 70.2269 69.388C70.2269 69.388 70.3139 68.374 71.2119 68.33C71.2119 68.33 72.0669 68.53 71.6179 68.838L71.5879 68.823C71.5879 68.823 70.9509 68.665 71.1969 69.475C71.2457 69.7064 71.3665 69.9164 71.542 70.0749C71.7176 70.2333 71.9388 70.3321 72.1739 70.357C72.3282 70.3517 72.4805 70.3213 72.6249 70.267L72.6179 70.247C72.6339 70.241 72.6489 70.247 72.6649 70.239C72.796 70.1848 72.913 70.1013 73.0069 69.995C73.2334 69.6609 73.3425 69.2609 73.3169 68.858C73.3166 68.5909 73.2871 68.3247 73.2289 68.064C72.4609 66.747 70.3609 67.607 70.1429 67.7C70.0519 67.786 62.2769 75.112 62.1839 75.2C61.9821 75.6343 61.8796 76.1081 61.8839 76.587C61.9064 77.2246 62.0888 77.8463 62.4143 78.395C62.7399 78.9437 63.1981 79.4017 63.7469 79.727C63.7659 79.738 65.6389 80.751 66.7869 79.751L72.9289 72.335C73.1881 72.0472 73.504 71.8161 73.8568 71.6562C74.2096 71.4963 74.5916 71.4111 74.9789 71.4059C75.3662 71.4008 75.7504 71.4757 76.1073 71.6262C76.4642 71.7766 76.7862 71.9992 77.0529 72.28C77.2219 72.408 77.7179 72.819 77.7179 73.271C77.7182 73.3324 77.709 73.3934 77.6909 73.452C77.5519 73.893 77.0139 73.98 76.5849 74C76.0388 74.2511 75.5469 74.6064 75.1369 75.046C75.1369 75.046 69.0479 82.046 68.9749 82.129C68.7779 82.6102 68.6761 83.125 68.6749 83.645C68.6702 84.0701 68.7589 84.491 68.9349 84.878C69.2234 85.3809 69.62 85.8133 70.0962 86.144C70.5723 86.4747 71.116 86.6953 71.6879 86.79C72.9705 87.1816 74.1426 87.8702 75.1089 88.8C75.3529 88.979 99.8089 106.45 126.481 87.63C127.191 87.0032 128.114 86.6719 129.06 86.704C129.957 86.3981 130.703 85.7596 131.143 84.92C131.287 84.5856 131.359 84.225 131.356 83.861C131.335 83.2151 131.172 82.5817 130.878 82.006C130.365 81.395 129.716 80.631 129.028 79.828L129.006 79.822V79.807C127.145 77.636 124.994 75.191 124.406 74.73C124.111 74.5065 123.781 74.3323 123.43 74.214C123.072 74.19 122.173 74.073 122.03 73.478C122.016 73.4261 122.009 73.3727 122.009 73.319C122.009 72.787 122.666 72.319 123.259 71.967C123.907 71.6529 124.636 71.5466 125.346 71.6628C126.057 71.779 126.714 72.1119 127.228 72.616L132.667 79.484C133.152 79.9511 133.802 80.2068 134.476 80.1948C135.149 80.1828 135.79 79.9041 136.258 79.42C137.141 78.727 137.748 77.7415 137.969 76.641C137.989 76.2719 137.929 75.9028 137.794 75.5586C137.66 75.2145 137.452 74.9033 137.187 74.646H137.18ZM79.6719 89.533C79.793 89.638 79.9217 89.7339 80.0569 89.82C80.1449 89.874 80.1679 89.927 80.1389 89.976C80.0979 90.043 80.0159 90.033 79.9199 89.976C79.3989 89.658 78.9109 89.322 78.6869 89.186C78.5029 89.073 77.9799 88.795 77.6679 88.605C77.5559 88.537 77.5169 88.473 77.5579 88.405C77.5869 88.357 77.6369 88.348 77.7329 88.405C77.8302 88.4647 77.9351 88.5108 78.0449 88.542C78.2289 88.6 78.3969 88.414 78.5989 88.154C78.8849 87.775 79.3469 87.015 79.8849 86.131L80.3989 85.285C80.4041 85.2786 80.4078 85.2711 80.41 85.2631C80.4121 85.2552 80.4126 85.2468 80.4114 85.2387C80.4102 85.2305 80.4073 85.2227 80.4029 85.2157C80.3985 85.2087 80.3927 85.2027 80.3859 85.198L77.3239 83.335C77.2999 83.32 77.2699 83.315 77.2409 83.364L76.7259 84.21C76.1879 85.093 75.7259 85.854 75.5139 86.291C75.3739 86.575 75.2939 86.817 75.5139 87.001C75.6354 87.1052 75.7641 87.2008 75.8989 87.287C75.9869 87.341 76.0099 87.395 75.9809 87.442C75.9399 87.509 75.8579 87.499 75.7619 87.442C75.2409 87.126 74.7529 86.789 74.5289 86.653C74.3449 86.541 73.8219 86.262 73.5009 86.067C73.4009 86.004 73.3579 85.941 73.4009 85.874C73.4309 85.825 73.4799 85.815 73.5759 85.874C73.6735 85.9332 73.7784 85.9792 73.8879 86.011C74.0719 86.071 74.2409 85.883 74.4429 85.624C74.7289 85.245 75.1909 84.485 75.7279 83.601L76.7579 81.909C77.6469 80.447 77.8099 80.178 77.9819 79.861C78.1639 79.524 78.1939 79.331 77.9709 79.103C77.8798 79.0185 77.7791 78.9451 77.6709 78.884C77.5829 78.83 77.5459 78.784 77.5869 78.714C77.6279 78.644 77.6959 78.661 77.8079 78.731C78.2409 78.994 78.7289 79.331 78.9449 79.461C79.1379 79.578 79.6599 79.861 79.9729 80.047C80.0849 80.114 80.1299 80.168 80.0889 80.236C80.0479 80.304 79.9889 80.294 79.8889 80.236C79.8096 80.1901 79.7258 80.1523 79.6389 80.123C79.3929 80.039 79.2299 80.164 79.0089 80.491C78.8089 80.791 78.6419 81.057 77.7529 82.519L77.6299 82.719C77.6009 82.768 77.6139 82.802 77.6369 82.819L80.6999 84.681C80.7229 84.694 80.7589 84.691 80.7889 84.643L80.9119 84.443C81.8009 82.982 81.9649 82.712 82.1349 82.394C82.3179 82.058 82.3479 81.864 82.1239 81.636C82.0327 81.5517 81.932 81.4782 81.8239 81.417C81.7359 81.364 81.6999 81.317 81.7409 81.248C81.7819 81.179 81.8499 81.196 81.9619 81.264C82.3949 81.528 82.8819 81.864 83.0989 81.995C83.2909 82.113 83.8139 82.395 84.1269 82.582C84.2389 82.65 84.2839 82.703 84.2429 82.771C84.2019 82.839 84.1429 82.828 84.0429 82.771C83.9634 82.7254 83.8797 82.6875 83.7929 82.658C83.5479 82.575 83.3839 82.699 83.1629 83.026C82.9629 83.326 82.7959 83.594 81.9069 85.055L80.8779 86.747C80.3399 87.632 79.8779 88.391 79.6669 88.829C79.5269 89.114 79.4469 89.354 79.6669 89.539L79.6719 89.533ZM88.0999 93.168C88.0669 93.252 87.9799 93.241 87.6569 93.115C87.3339 92.989 86.7049 92.74 86.0149 92.445C85.8619 92.373 85.7569 92.332 85.7859 92.259C85.8149 92.186 85.8539 92.188 85.9449 92.212C85.9949 92.2053 86.0406 92.1799 86.0726 92.141C86.1047 92.102 86.1209 92.0524 86.1179 92.002L86.2919 89.502C86.2968 89.48 86.2936 89.4571 86.2829 89.4373C86.2723 89.4174 86.2549 89.4021 86.2339 89.394L84.2859 88.629C84.2429 88.612 84.2169 88.629 84.1749 88.682L83.1189 90C82.9649 90.1774 82.8364 90.3752 82.7369 90.588C82.6629 90.777 82.6879 90.943 82.9589 91.049L83.0899 91.1C83.1899 91.141 83.2119 91.173 83.1899 91.236C83.1569 91.319 83.0969 91.32 82.9999 91.282C82.7209 91.173 82.3579 90.993 82.0869 90.882C81.9869 90.845 81.4989 90.687 81.0439 90.508C80.9299 90.463 80.8859 90.422 80.9189 90.338C80.9439 90.276 80.9869 90.267 81.0569 90.296C81.1483 90.3298 81.2414 90.3585 81.3359 90.382C81.7629 90.482 82.0679 90.182 82.4489 89.73L87.2279 84.016C87.4519 83.754 87.5499 83.659 87.6369 83.695C87.7239 83.731 87.7309 83.84 87.7229 84.115C87.7059 84.774 87.4229 89.596 87.3559 91.407C87.3169 92.479 87.5129 92.726 87.6759 92.85C87.7853 92.9254 87.9031 92.9879 88.0269 93.036C88.0959 93.065 88.1359 93.091 88.1069 93.165L88.0999 93.168ZM96.2079 94.94C96.1889 95.027 96.1199 95.035 96.0079 95.012L95.1369 94.823C94.7879 94.7857 94.46 94.6378 94.2009 94.401C93.7726 93.8401 93.4642 93.1971 93.2949 92.512C93.0589 91.828 92.7949 90.987 92.7159 90.798C92.7039 90.7675 92.6838 90.741 92.6577 90.7212C92.6316 90.7014 92.6005 90.6893 92.5679 90.686L91.7749 90.486C91.7289 90.476 91.6969 90.492 91.6819 90.558L91.6479 90.712C91.4259 91.734 91.2379 92.603 91.1839 93.075C91.1419 93.401 91.1449 93.654 91.4109 93.758C91.5544 93.8144 91.7014 93.8615 91.8509 93.899C91.9239 93.915 91.9509 93.956 91.9419 94.011C91.9249 94.088 91.8539 94.111 91.7349 94.081C91.2029 93.966 90.5349 93.781 90.3939 93.757C90.2199 93.719 89.6349 93.627 89.2679 93.547C89.1489 93.521 89.0919 93.473 89.1089 93.398C89.1209 93.342 89.1649 93.318 89.2739 93.34C89.3855 93.3644 89.4998 93.3738 89.6139 93.368C89.8069 93.368 89.9049 93.132 90.0139 92.821C90.1599 92.369 90.3479 91.5 90.5679 90.489L90.9879 88.553C91.3509 86.881 91.4169 86.573 91.4749 86.218C91.5379 85.841 91.5029 85.648 91.2169 85.505C91.1049 85.455 90.9874 85.4181 90.8669 85.395C90.7669 85.373 90.7159 85.34 90.7329 85.262C90.7499 85.184 90.8189 85.176 90.9559 85.206C91.4419 85.312 92.0129 85.47 92.2049 85.511C92.5169 85.579 93.2209 85.697 93.5049 85.76C94.1162 85.8431 94.6782 86.1404 95.0909 86.599C95.2511 86.8374 95.3604 87.1062 95.412 87.3887C95.4637 87.6713 95.4565 87.9614 95.3909 88.241C95.2769 88.7123 95.0618 89.1532 94.7605 89.533C94.4592 89.9129 94.0789 90.2227 93.6459 90.441C94.1949 91.849 94.6149 92.965 95.0079 93.764C95.1665 94.1834 95.4746 94.5292 95.8729 94.735C95.9529 94.7731 96.0367 94.8026 96.1229 94.823C96.1939 94.844 96.2239 94.884 96.2119 94.94H96.2079ZM101.276 91.009C100.623 92.631 100.143 93.843 99.9179 94.399C99.6529 95.044 99.5919 95.221 99.4599 95.218C99.3279 95.215 99.2869 95.055 99.1259 94.518L96.9839 87.57C96.7839 86.944 96.6319 86.815 96.2989 86.692C96.1807 86.6551 96.0577 86.6359 95.9339 86.635C95.8499 86.635 95.8229 86.598 95.8249 86.535C95.8249 86.445 95.9309 86.435 96.0719 86.442C96.5719 86.458 97.1029 86.509 97.4309 86.519C97.6659 86.527 98.1169 86.508 98.5859 86.519C98.6989 86.519 98.8009 86.549 98.7989 86.628C98.7969 86.707 98.7399 86.728 98.6549 86.728C98.5283 86.708 98.3987 86.7313 98.2869 86.794C98.2538 86.8228 98.2275 86.8587 98.2102 86.899C98.1929 86.9394 98.1849 86.9831 98.1869 87.027C98.2155 87.3243 98.2786 87.6173 98.3749 87.9L99.8229 93.058H99.8609C100.304 91.833 101.639 88.251 101.889 87.515C101.94 87.3823 101.974 87.2434 101.989 87.102C101.994 87.0585 101.986 87.0144 101.965 86.9757C101.945 86.9369 101.913 86.9053 101.874 86.885C101.755 86.8392 101.628 86.8158 101.5 86.816C101.416 86.816 101.341 86.8 101.344 86.716C101.347 86.632 101.432 86.606 101.61 86.616C102.079 86.631 102.472 86.677 102.595 86.681C102.754 86.687 103.195 86.666 103.477 86.676C103.599 86.676 103.677 86.705 103.67 86.783C103.663 86.861 103.612 86.883 103.517 86.883C103.353 86.8677 103.189 86.9105 103.054 87.004C102.929 87.104 102.781 87.288 102.506 88.004C102.106 89.05 101.833 89.648 101.281 91.015L101.276 91.009ZM109.976 94.136C109.642 94.187 108.964 94.29 108.219 94.379C108.051 94.393 107.94 94.411 107.928 94.331C107.916 94.251 107.952 94.238 108.043 94.212C108.083 94.1812 108.11 94.1363 108.118 94.0864C108.127 94.0365 108.116 93.9852 108.088 93.943L107 91.7C106.973 91.648 106.942 91.629 106.9 91.636L104.831 91.949C104.785 91.957 104.769 91.981 104.76 92.049L104.499 93.716C104.455 93.9466 104.442 94.1821 104.462 94.416C104.492 94.616 104.598 94.749 104.886 94.705L105.024 94.684C105.135 94.667 105.166 94.684 105.178 94.752C105.19 94.84 105.139 94.871 105.037 94.886C104.737 94.931 104.337 94.958 104.049 95.001C103.949 95.016 103.441 95.128 102.959 95.201C102.838 95.22 102.778 95.201 102.766 95.117C102.755 95.05 102.789 95.022 102.866 95.011C102.962 94.9951 103.057 94.9734 103.15 94.946C103.567 94.814 103.686 94.409 103.788 93.824L105.063 86.486C105.125 86.147 105.163 86.015 105.256 86.001C105.349 85.987 105.41 86.08 105.541 86.321C105.856 86.9 108.026 91.216 108.874 92.821C109.374 93.768 109.674 93.884 109.874 93.91C110.007 93.9214 110.142 93.9167 110.274 93.896C110.347 93.885 110.396 93.89 110.407 93.967C110.418 94.044 110.34 94.09 109.997 94.142L109.976 94.136ZM118.292 91.207L117.456 91.514C117.141 91.6693 116.785 91.7198 116.439 91.658C115.777 91.4134 115.172 91.0353 114.663 90.547C114.098 90.095 113.429 89.524 113.256 89.408C113.229 89.3888 113.198 89.3772 113.165 89.3743C113.132 89.3715 113.099 89.3776 113.07 89.392L112.296 89.651C112.251 89.667 112.234 89.699 112.257 89.762L112.311 89.91C112.671 90.892 112.976 91.726 113.183 92.154C113.321 92.454 113.46 92.664 113.74 92.61C113.891 92.5809 114.04 92.5418 114.186 92.493C114.257 92.467 114.304 92.486 114.323 92.539C114.35 92.614 114.3 92.668 114.186 92.71C113.674 92.896 113.011 93.103 112.879 93.153C112.712 93.214 112.167 93.453 111.816 93.578C111.701 93.62 111.627 93.61 111.6 93.537C111.581 93.484 111.605 93.437 111.71 93.399C111.817 93.3605 111.917 93.3077 112.01 93.242C112.171 93.134 112.13 92.886 112.052 92.567C111.934 92.107 111.628 91.267 111.272 90.3L110.591 88.44C110.003 86.834 109.891 86.54 109.753 86.207C109.604 85.854 109.472 85.707 109.153 85.743C109.031 85.7606 108.912 85.7922 108.798 85.837C108.698 85.873 108.641 85.871 108.614 85.797C108.587 85.723 108.641 85.679 108.773 85.631C109.24 85.46 109.806 85.287 109.992 85.221C110.292 85.111 110.949 84.834 111.222 84.734C111.783 84.4778 112.416 84.4282 113.01 84.594C113.272 84.7107 113.508 84.88 113.702 85.0914C113.897 85.3028 114.046 85.5518 114.14 85.823C114.296 86.2823 114.349 86.7699 114.297 87.2521C114.246 87.7342 114.09 88.1993 113.84 88.615C115.057 89.515 116.011 90.229 116.77 90.694C117.128 90.9639 117.573 91.0914 118.02 91.052C118.108 91.0417 118.194 91.0219 118.278 90.993C118.349 90.967 118.396 90.986 118.415 91.039C118.446 91.123 118.392 91.168 118.286 91.205L118.292 91.207ZM124.123 86.16C124.027 86.7432 123.8 87.2971 123.46 87.7802C123.119 88.2634 122.674 88.6633 122.157 88.95C121.871 89.129 121.526 89.303 121.205 89.464C120.884 89.625 120.589 89.769 120.389 89.893C120.301 89.947 120.125 90.057 119.941 90.186C119.758 90.3 119.562 90.448 119.404 90.547C119.304 90.611 119.226 90.617 119.186 90.547C119.156 90.499 119.17 90.447 119.266 90.39C119.362 90.3295 119.451 90.2566 119.528 90.173C119.664 90.035 119.573 89.801 119.428 89.504C119.217 89.079 118.748 88.324 118.201 87.445L117.153 85.765C116.253 84.312 116.082 84.044 115.875 83.75C115.658 83.435 115.498 83.322 115.193 83.419C115.077 83.4611 114.967 83.5162 114.864 83.583C114.777 83.638 114.718 83.648 114.675 83.583C114.632 83.518 114.675 83.462 114.797 83.388C115.219 83.125 115.738 82.841 115.962 82.702C116.208 82.548 116.692 82.207 117.17 81.909C118.17 81.289 119.496 80.46 121.042 81.009C122.004 81.3751 122.81 82.0617 123.325 82.953C123.947 83.8995 124.227 85.0305 124.118 86.158L124.123 86.16Z" fill="white"/>
<path d="M70.0549 14.314H129.83V34.861C129.83 66.57 101.173 82.673 99.9429 83.35C98.7129 82.673 70.0559 66.57 70.0559 34.861C70.0549 34.861 70.0549 15.206 70.0549 14.314ZM93.2319 21.738C92.9139 21.731 92.6459 22.11 92.3499 22.257C90.7989 22.969 89.2029 22.412 87.4599 22.646L86.1499 23.087C85.7929 23.047 85.5209 22.802 85.1639 22.763C83.9215 22.6528 82.6724 22.6397 81.4279 22.724C80.4878 22.665 79.5757 22.3803 78.7689 21.894C78.2569 21.854 78.2949 22.576 77.8219 22.607C77.4654 22.6588 77.1043 22.6719 76.7449 22.646C76.5307 22.6247 76.3148 22.6662 76.1236 22.7652C75.9325 22.8643 75.7742 23.0167 75.6679 23.204L75.5509 25.539C75.5498 25.625 75.5233 25.7087 75.475 25.7798C75.4266 25.8509 75.3585 25.9063 75.2789 25.939C74.3639 25.979 73.2859 25.847 72.9309 26.847C72.8529 27.282 72.7309 27.834 73.0479 28.196C73.3311 28.4178 73.6571 28.5784 74.0055 28.6678C74.3539 28.7571 74.717 28.7732 75.0719 28.715C75.5899 28.793 75.4719 29.383 75.4719 29.74C75.5569 31.724 75.3159 33.631 75.4719 35.733C75.2379 36.764 73.9269 35.817 73.3319 36.446C73.0667 36.7566 72.9244 37.1536 72.9319 37.562C72.8817 37.8239 72.9257 38.0952 73.0562 38.3278C73.1867 38.5604 73.3952 38.7394 73.6449 38.833C74.2449 39.066 74.9229 38.878 75.4739 39.196C75.7529 40.109 75.2799 41.37 75.8739 42.244C76.1885 42.4914 76.574 42.6315 76.9739 42.644C78.1662 42.7581 79.3678 42.7319 80.5539 42.566C81.7945 42.5012 83.038 42.5142 84.2769 42.605C84.5939 42.728 85.0359 42.683 85.1589 43.085C85.4283 43.3022 85.7516 43.4422 86.0943 43.4901C86.437 43.538 86.7863 43.492 87.1049 43.357C87.4619 43.04 87.6949 42.604 88.1299 42.488L90.1149 42.566C90.6896 42.3817 91.3033 42.3547 91.8919 42.488C92.9229 42.526 93.9619 42.526 94.9529 42.488C95.4806 42.4608 95.9945 42.3097 96.4529 42.047C97.0529 40.971 96.2449 39.706 96.8809 38.674C97.5169 38.518 98.2309 38.869 98.7489 38.389C98.9564 38.2199 99.1151 37.9985 99.2086 37.7477C99.3021 37.4969 99.3271 37.2257 99.2809 36.962C99.0649 36.6114 98.7459 36.3361 98.3676 36.1736C97.9892 36.0111 97.5699 35.9693 97.1669 36.054C96.8099 35.976 96.7369 35.581 96.6609 35.302C96.5759 33.519 96.6879 31.923 96.7259 30.179C96.9259 29.621 96.5709 29.108 96.9719 28.635C97.5609 28.2 98.4379 28.596 98.9179 27.922C98.9499 27.48 99.1569 26.761 98.7229 26.404C98.5047 26.2346 98.2535 26.1125 97.9854 26.0455C97.7173 25.9785 97.4382 25.9681 97.1659 26.015C96.0189 25.178 97.2059 23.984 96.5299 22.954C96.2569 22.7448 95.9379 22.6039 95.5994 22.543C95.2609 22.4821 94.9127 22.503 94.5839 22.604C94.163 22.5076 93.7957 22.2521 93.5589 21.891C93.4725 21.8018 93.3567 21.7471 93.2329 21.737L93.2319 21.738ZM121.303 21.868C121.254 21.8766 121.206 21.8897 121.16 21.907C119.339 23.326 116.717 22.224 114.57 22.737C114.329 22.775 114.17 23.055 113.857 22.97C112.19 22.062 110.165 22.89 108.422 22.464C107.663 22.417 106.981 21.699 106.269 22.101C105.95 23.201 104.647 22.328 103.895 22.607C102.585 23.158 103.46 24.586 103.22 25.655C102.778 26.492 101.663 25.707 101.067 26.381C100.917 26.5146 100.798 26.6787 100.718 26.8623C100.637 27.0458 100.597 27.2445 100.6 27.445C100.678 28.989 102.546 28.12 103.3 28.911C103.106 29.864 103.416 30.863 103.222 31.7C103.106 33.088 103.461 34.438 103.3 35.747C102.624 36.461 101.16 35.702 100.8 36.847C100.488 37.327 100.794 37.839 101.033 38.274C101.582 38.6761 102.266 38.8483 102.94 38.754C103.614 39.39 103.226 40.381 103.264 41.254C103.342 41.564 103.18 41.883 103.459 42.162C104.311 42.3965 105.196 42.4927 106.079 42.447C108.023 42.447 109.77 42.447 111.553 42.525C112.468 42.286 113.024 43.239 113.901 43.277C114.731 43.395 114.854 42.244 115.691 42.447L119.738 42.486C120.517 42.4725 121.296 42.4986 122.073 42.564C122.858 42.401 123.811 42.718 124.291 42.084C124.46 41.1549 124.551 40.2133 124.563 39.269C124.804 38.469 125.873 38.989 126.431 38.633C126.637 38.5519 126.819 38.4183 126.958 38.2453C127.096 38.0723 127.188 37.8661 127.222 37.647C127.383 37.047 126.989 36.609 126.622 36.207C126.149 35.935 125.637 36.09 125.122 35.974C124.986 35.921 124.868 35.8284 124.785 35.7081C124.702 35.5878 124.656 35.4453 124.655 35.299C124.58 34.1229 124.606 32.9426 124.733 31.771C124.632 30.844 124.632 29.9089 124.733 28.982L124.889 28.749C125.525 28.588 126.277 28.833 126.757 28.36C126.941 28.1585 127.064 27.909 127.112 27.6403C127.161 27.3717 127.132 27.0949 127.029 26.842C126.788 25.889 125.719 26.135 125.005 26.012C124.331 25.695 124.695 24.98 124.655 24.429C124.655 23.909 124.883 23.191 124.292 22.795C123.752 22.641 123.183 22.6188 122.632 22.73C121.891 22.912 121.983 21.801 121.309 21.861L121.303 21.868ZM90.0549 48.978C89.6919 49.036 89.6029 49.702 89.2549 49.834C88.4549 50.106 87.4659 49.601 86.7899 50.234C86.3899 51.064 86.8669 52.018 86.6729 52.934C86.5569 53.492 85.8809 53.244 85.4409 53.284C85.1204 53.2494 84.7963 53.2966 84.499 53.4213C84.2017 53.546 83.9409 53.7441 83.7409 53.997C83.6128 54.3682 83.5858 54.7669 83.6629 55.152C84.0199 55.942 85.0119 55.904 85.7629 56.06C86.0419 56.06 86.3529 55.99 86.5539 56.229C86.6699 57.378 86.5919 58.454 86.6319 59.563C86.5695 60.3791 86.5695 61.1989 86.6319 62.015C86.5498 62.3297 86.5498 62.6603 86.6319 62.975C86.5919 63.214 86.5609 63.493 86.2819 63.533C85.7239 63.611 85.0819 63.371 84.6089 63.65C84.4206 63.7232 84.2495 63.8348 84.1066 63.9776C83.9637 64.1205 83.8521 64.2916 83.7789 64.48C83.6829 64.8375 83.7104 65.217 83.8569 65.557C84.4459 66.27 85.3569 66.117 86.1919 66.193C87.0289 66.393 86.6339 67.464 86.7109 68.1L86.7889 69.41C87.0299 70.24 88.0599 70.01 88.6959 70.24L90.0449 70.084C90.9219 70.325 91.9449 69.921 92.8209 70.123C93.866 69.9427 94.9304 69.9033 95.9859 70.006C96.6619 69.961 97.3739 69.955 98.0859 69.915C98.6859 70.315 99.3249 70.829 100.086 70.59C100.413 70.3371 100.791 70.1576 101.194 70.0635C101.597 69.9695 102.015 69.9632 102.421 70.045L104.094 69.954L104.405 70.084L106.429 70.006C107.663 70.046 108.929 69.876 110.282 69.954L111.437 69.876L112.462 69.604C113.176 68.93 112.71 67.82 112.862 66.945C112.987 66.626 112.895 66.192 113.29 66.076C114.127 65.953 115.241 66.039 115.56 65.076C115.679 64.6948 115.651 64.2828 115.482 63.921C115.14 63.5676 114.695 63.3313 114.211 63.246C113.738 63.324 113.063 63.37 112.784 62.935C112.984 60.556 112.707 58.535 112.901 56.151L113.173 55.788C113.963 55.625 114.964 55.749 115.365 54.88C115.432 54.6707 115.445 54.4477 115.401 54.2321C115.358 54.0166 115.261 53.8156 115.119 53.648C114.646 52.772 113.498 53.493 112.862 52.973C112.462 52.138 113.101 51.229 112.784 50.314C112.264 49.406 111.118 49.714 110.241 49.714C109.741 49.3819 109.166 49.181 108.568 49.13C107.664 49.6395 106.634 49.8822 105.597 49.83C104.286 49.985 103.016 49.674 101.744 49.752C101.368 49.667 100.977 49.6659 100.601 49.7489C100.224 49.8318 99.8705 49.9968 99.5649 50.232L98.5649 49.791C96.1079 49.396 93.4979 50.391 91.1189 49.519L90.3669 49.039C90.2735 48.983 90.164 48.96 90.0559 48.974L90.0549 48.978Z" fill="white"/>
<path d="M95.2819 23.307C95.4005 23.2783 95.5257 23.2976 95.6302 23.3607C95.7347 23.4238 95.8101 23.5256 95.8399 23.644C96.1499 24.552 95.8279 25.505 96.0609 26.42C96.6609 26.933 97.7349 26.297 98.2139 27.056C98.2354 27.1881 98.2062 27.3234 98.1319 27.4347C98.0577 27.5461 97.9441 27.6251 97.8139 27.656C97.3009 27.895 96.4589 27.456 96.1409 28.056C95.9069 29.722 96.1029 31.136 95.9079 32.803C95.882 33.9719 95.9341 35.1411 96.0639 36.303C96.6219 37.334 98.2949 36.095 98.4509 37.445C97.9779 38.436 96.5059 37.295 95.9859 38.288C95.9079 39.241 95.8629 40.304 95.7909 41.259C95.7129 41.492 95.4789 41.545 95.2849 41.659L90.9999 41.74C90.1629 41.584 89.2939 41.98 88.4569 41.701C88.2569 41.857 88.0239 41.701 87.8209 41.662C87.7683 41.5626 87.7544 41.4471 87.7819 41.338C88.4086 41.132 89.0727 41.0655 89.7279 41.143L92.5039 41.065C93.3789 41.103 94.6039 41.344 95.0719 40.429C95.3909 38.405 95.0459 36.337 95.2019 34.229C95.2469 31.729 95.2409 29.469 95.2409 26.887C95.2443 25.7738 95.1489 24.6624 94.9559 23.566C94.98 23.4963 95.0235 23.435 95.0812 23.3891C95.1389 23.3432 95.2085 23.3148 95.2819 23.307V23.307Z" fill="white"/>
<path d="M76.7449 23.527C77.6129 23.527 76.7449 24.313 76.9009 24.746L76.8229 26.822C76.7849 30.154 76.9399 33.554 76.7839 36.771C76.8219 38.081 76.9399 39.198 76.9789 40.471C77.0969 41.145 77.8089 41.03 78.2499 41.146C79.2809 41.03 80.3439 41.27 81.3369 41.185C82.3818 41.1072 83.431 41.1072 84.4759 41.185C84.5919 41.223 84.7479 41.302 84.7479 41.457C84.7929 41.696 84.5599 41.821 84.3589 41.857C81.8589 41.779 79.2729 41.897 76.8589 41.779C76.7305 41.7448 76.6125 41.6796 76.5152 41.5891C76.4179 41.4986 76.3443 41.3856 76.3009 41.26C76.1779 40.345 76.3079 39.275 76.1449 38.406C75.4709 37.888 74.3169 38.522 73.7969 37.731C73.7488 37.6308 73.7355 37.5174 73.759 37.4087C73.7825 37.3 73.8416 37.2023 73.9269 37.131C74.4779 36.698 75.2759 37.048 75.9119 36.807L76.1069 36.612C76.3859 34.031 76.0609 31.533 76.3019 29.037C76.1389 28.682 76.2179 28.2 75.7829 27.999C75.3335 27.9537 74.88 27.9668 74.4339 28.038C74.1149 27.882 73.7209 27.928 73.5649 27.571C73.5569 27.4146 73.5991 27.2597 73.6855 27.1291C73.7719 26.9984 73.8979 26.8989 74.0449 26.845C74.6789 26.445 75.8669 27.136 76.1079 26.106C76.4669 25.31 75.9539 24.123 76.7449 23.527Z" fill="white"/>
<path d="M104.531 23.255C104.678 23.2324 104.829 23.2598 104.959 23.333L105.076 23.45C104.755 24.0743 104.607 24.7732 104.648 25.474C104.61 27.419 104.609 29.19 104.609 31.052C104.687 33.835 104.491 37.286 104.687 40.184C104.725 40.503 104.96 40.664 105.232 40.82C107.455 41.02 109.632 40.789 111.9 41.028C112.063 41.106 112.263 41.106 112.341 41.3C112.386 41.5 112.185 41.579 112.069 41.663C110.123 41.741 108.138 41.579 106.193 41.702C105.479 41.541 104.37 41.974 104.053 41.144C103.975 40.432 104.053 39.711 103.975 38.991C103.939 38.813 103.868 38.6441 103.764 38.4947C103.661 38.3452 103.529 38.2184 103.375 38.122C102.739 37.922 101.714 38.317 101.442 37.486C101.425 37.3505 101.459 37.2135 101.538 37.1023C101.618 36.9911 101.736 36.9139 101.87 36.886C102.47 36.73 103.37 36.965 103.725 36.286C103.914 34.6285 103.984 32.9595 103.933 31.292C103.815 30.462 103.972 29.509 103.894 28.592C103.577 27.599 102.421 27.992 101.663 27.801C101.59 27.7703 101.525 27.7246 101.471 27.6669C101.417 27.6092 101.376 27.5408 101.35 27.4662C101.325 27.3916 101.315 27.3124 101.322 27.2338C101.329 27.1552 101.352 27.0789 101.391 27.01C102.112 26.334 103.691 27.082 103.891 25.855C103.852 25.03 103.935 24.2038 104.137 23.403C104.255 23.3238 104.39 23.2731 104.531 23.255V23.255Z" fill="white"/>
<path d="M123.185 23.411C123.323 23.3921 123.463 23.407 123.594 23.4544C123.725 23.5018 123.843 23.5802 123.937 23.683C124.372 24.636 123.425 26.347 124.845 26.667C125.365 26.823 126.145 26.498 126.389 27.134C126.422 27.2245 126.436 27.321 126.429 27.4172C126.422 27.5133 126.395 27.607 126.35 27.692C125.676 28.366 124.216 27.413 124.015 28.6C124.074 29.247 124.074 29.898 124.015 30.545V33.321C123.856 34.3542 123.909 35.409 124.171 36.421L124.482 36.654C125.158 36.81 126.032 36.544 126.506 37.095C126.551 37.374 126.474 37.731 126.195 37.808C125.521 38.248 124.334 37.452 123.977 38.408C123.944 39.3768 123.852 40.3426 123.7 41.3L123.337 41.624C121.313 41.779 119.367 41.624 117.383 41.663L115.437 41.624C115.374 41.5904 115.327 41.5338 115.305 41.4661C115.283 41.3984 115.289 41.3249 115.32 41.261C116.157 40.703 117.351 41.143 118.342 41.066C119.692 41.104 121.079 41.066 122.467 41.027C123.42 40.592 122.867 39.555 123.103 38.718C123.181 36.418 123.142 34.118 123.22 31.818C123.18 29.439 123.143 27.129 123.181 24.827C123.225 24.313 122.549 23.683 123.185 23.411Z" fill="white"/>
<path d="M111.458 50.379C111.638 50.3857 111.809 50.4603 111.937 50.5879C112.065 50.7155 112.139 50.8867 112.146 51.067C112 51.9235 112.094 52.8037 112.418 53.61C113.018 53.929 113.845 53.732 114.481 54.051C114.535 54.1471 114.567 54.2543 114.574 54.3645C114.581 54.4747 114.562 54.585 114.52 54.687C113.846 55.361 112.463 54.556 112.146 55.712C112.028 57.178 112.218 58.448 112.107 59.876C112.004 61.1477 112.043 62.427 112.224 63.69C112.824 64.404 113.961 63.808 114.637 64.403C114.705 64.4952 114.741 64.6066 114.741 64.721C114.741 64.8354 114.705 64.9468 114.637 65.039C114.079 65.791 112.783 64.917 112.337 65.791C112.152 66.7493 112.048 67.7213 112.026 68.697C111.515 69.333 110.639 68.931 109.963 69.125C106.986 69.047 104.171 69.288 101.233 69.125C101.072 69.009 100.825 68.775 101.025 68.58L101.388 68.411C104.327 68.295 107.414 68.495 110.313 68.216C110.497 68.214 110.677 68.1608 110.833 68.0622C110.989 67.9637 111.114 67.8237 111.195 67.658C111.395 65.474 111.273 63.092 111.273 60.951C111.429 57.89 111.235 54.601 111.273 51.551C111.273 51.156 110.554 50.806 111.065 50.487C111.185 50.4183 111.32 50.3811 111.458 50.379V50.379Z" fill="white"/>
<path d="M88.2258 50.561C88.3124 50.5689 88.3928 50.6094 88.4506 50.6744C88.5084 50.7395 88.5392 50.8241 88.5368 50.911C88.5048 51.311 88.1368 51.541 88.0568 51.936C87.9008 54.236 88.0948 56.743 88.0568 59.006C88.1093 60.2084 88.0832 61.413 87.9788 62.612C88.0369 63.2463 88.0369 63.8847 87.9788 64.519C88.0948 65.831 88.0568 66.905 88.1738 68.177L88.4588 68.41C90.4378 68.457 92.5448 68.177 94.6468 68.371L97.8248 68.41C97.9028 68.535 98.0968 68.773 97.9028 68.929C97.32 69.0347 96.7306 69.0998 96.1388 69.124C94.9138 69.001 93.7318 69.358 92.5068 69.124C90.9958 69.124 89.4768 69.359 87.9798 69.241C87.8677 69.2111 87.7633 69.1574 87.6737 69.0835C87.5842 69.0097 87.5115 68.9174 87.4608 68.813C87.4647 67.8654 87.3867 66.9192 87.2278 65.985C86.6698 65.155 85.4748 65.706 84.7628 65.233C84.6746 65.1836 84.609 65.1019 84.5799 65.005C84.5508 64.9082 84.5605 64.8039 84.6068 64.714C85.2428 64.078 86.1968 64.402 86.9938 64.169C87.3128 63.929 87.2648 63.488 87.3048 63.169C87.3428 61.145 87.3048 59.239 87.3438 57.332C87.3058 56.62 87.4998 55.742 86.7858 55.308C86.0338 55.029 84.9238 55.664 84.5288 54.708C84.5313 54.5747 84.575 54.4454 84.654 54.3379C84.733 54.2305 84.8433 54.1502 84.9698 54.108C85.7998 53.868 87.0648 54.316 87.3438 53.2C87.3049 52.4457 87.3441 51.6893 87.4608 50.943C87.5462 50.8204 87.661 50.7212 87.7946 50.6545C87.9283 50.5878 88.0765 50.5556 88.2258 50.561V50.561Z" fill="white"/>
<path d="M79.573 23.1C79.847 23.11 80.105 23.3 80.403 23.333C81.324 23.5539 82.2753 23.6198 83.218 23.528C83.452 23.606 83.653 23.449 83.854 23.411C84.3678 23.3634 84.883 23.4864 85.32 23.761L85.592 24.361C85.63 26.624 85.746 28.719 85.592 31.106V31.858L85.514 35.698C85.5069 36.7984 85.5589 37.8983 85.67 38.993C85.63 39.118 85.559 39.278 85.437 39.278C84.0781 39.0158 82.6958 38.8941 81.312 38.915C80.638 38.992 79.729 39.076 79.249 38.565C78.977 38.286 79.295 37.965 79.132 37.683C79.248 35.505 79.094 32.962 79.054 30.86C79.132 29.233 79.015 27.727 79.171 26.139C79.053 25.426 79.217 24.562 79.132 23.804C79.0864 23.6953 79.0769 23.5748 79.105 23.4603C79.1331 23.3458 79.1972 23.2433 79.288 23.168C79.3757 23.1216 79.4737 23.0982 79.573 23.1V23.1ZM80.792 27.575C80.392 27.736 79.645 27.458 79.599 28.016C79.599 28.243 79.878 28.281 79.999 28.444C80.5643 29.4273 81.0043 30.4775 81.309 31.57C81.4495 32.1181 81.6362 32.6534 81.867 33.17C81.983 33.806 82.1 34.553 82.736 34.791C82.975 34.791 83.087 34.597 83.203 34.441C83.839 32.497 84.24 30.432 84.876 28.526C84.961 28.37 85.186 28.2 85.109 27.968C84.9817 27.8544 84.8305 27.7709 84.6665 27.7238C84.5026 27.6767 84.3301 27.6672 84.162 27.696C83.968 27.78 83.681 27.853 83.721 28.163C84.433 29.116 83.649 30.309 83.526 31.302C83.37 31.742 83.448 32.457 82.89 32.534C82.6123 32.128 82.4223 31.6685 82.332 31.185C82.0157 30.4517 81.7641 29.6921 81.58 28.915C81.58 28.558 81.867 28.376 81.943 28.059C81.831 27.541 81.188 27.613 80.793 27.575H80.792Z" fill="white"/>
<path d="M92.6619 22.892C92.7093 22.8933 92.7559 22.9049 92.7983 22.926C92.8408 22.9471 92.8781 22.9773 92.9077 23.0143C92.9374 23.0513 92.9585 23.0944 92.9698 23.1405C92.981 23.1865 92.9821 23.2345 92.9729 23.281C93.0889 24.033 92.8509 24.781 92.9339 25.655C92.9339 27.283 93.0829 28.788 92.9339 30.376C92.9339 32.795 92.8949 34.911 92.9729 37.251C92.9399 37.724 93.0949 38.437 92.5839 38.751L91.6239 38.984C89.9315 38.9003 88.2351 38.9568 86.5519 39.153C85.9159 38.914 86.4739 38.153 86.3959 37.596C86.2329 34.379 86.2259 31.019 86.2659 27.842C86.3792 26.9295 86.3923 26.0073 86.3049 25.092C86.4679 24.534 86.3959 23.755 87.0699 23.561C87.8809 23.4363 88.7023 23.3927 89.5219 23.431C90.5991 23.5741 91.6942 23.3861 92.6619 22.892V22.892ZM90.1619 27.575C89.2196 27.5921 88.2793 27.6699 87.3469 27.808C87.0369 28.203 87.6719 28.431 87.7879 28.833C87.8259 30.422 87.7879 31.966 87.7489 33.633C87.7489 34.075 87.0289 34.508 87.5799 34.826C88.4169 34.864 89.2069 34.944 90.0059 34.982C90.4789 35.022 91.0309 35.073 91.3059 34.593C91.4689 34.314 91.6749 33.95 91.4749 33.633C91.4749 33.439 91.2269 33.244 91.0749 33.322C90.8409 33.677 90.7749 34.076 90.3359 34.23C89.8559 34.23 89.1359 34.515 88.8179 34.035C88.7799 33.167 88.4229 31.935 88.9349 31.259C89.5709 30.826 90.0569 32.05 90.4919 31.298C90.5686 31.124 90.5982 30.9329 90.5776 30.7438C90.5571 30.5548 90.4872 30.3745 90.3749 30.221C89.8949 30.261 89.6619 30.901 89.1039 30.662C88.5039 30.305 88.8179 29.384 88.7799 28.794C88.821 28.6397 88.9148 28.5046 89.045 28.4122C89.1753 28.3198 89.3337 28.2759 89.4929 28.288C90.0129 28.25 90.2459 28.832 90.6859 28.988C90.9519 28.91 90.9509 28.598 90.9189 28.404C90.6319 28.126 90.6769 27.535 90.1579 27.575H90.1619Z" fill="white"/>
<path d="M120.682 22.931C120.882 22.931 120.915 23.125 120.915 23.281C120.759 26.017 121.071 28.873 120.837 31.531C120.948 33.749 120.758 36.144 120.798 38.445C120.557 38.92 119.85 38.912 119.298 38.912C117.91 39.067 116.483 38.756 115.173 38.912C114.738 38.872 114.258 39.471 113.941 39.029C113.979 37.92 114.097 36.929 114.136 35.864C113.973 31.694 114.099 28.242 114.175 24.112C114.22 23.9449 114.311 23.7936 114.437 23.6745C114.563 23.5555 114.719 23.4733 114.888 23.437C116.791 23.249 118.932 23.721 120.682 22.931ZM117.464 27.5C116.991 27.654 116.355 27.375 115.92 27.695C115.759 28.045 116.076 28.325 116.192 28.642C116.299 30.3742 116.286 32.1116 116.153 33.842C116.075 34.121 115.674 34.277 115.634 34.555C115.556 34.671 115.712 34.828 115.829 34.866C116.387 34.8396 116.946 34.8526 117.502 34.905C118.216 34.586 117.385 34.159 117.346 33.763C117.384 31.973 117.229 30.383 117.385 28.678C117.541 28.359 117.93 28.121 117.852 27.731C117.822 27.536 117.627 27.535 117.464 27.5Z" fill="white"/>
<path d="M107.1 22.931C107.568 22.9383 108.029 23.049 108.449 23.255C109.651 23.391 110.865 23.391 112.068 23.255C112.425 23.333 112.931 23.21 113.132 23.644C113.415 24.7184 113.482 25.8386 113.327 26.939C113.41 29.239 113.171 31.616 113.327 33.879C113.327 34.509 113.25 35.072 113.288 35.708C113.172 36.779 113.25 37.732 113.21 38.886C112.971 39.081 112.61 38.924 112.38 38.886C111.615 38.8308 110.847 38.8178 110.08 38.847C109.732 38.8134 109.381 38.8398 109.042 38.925C108.335 38.771 107.414 38.964 106.863 38.406C106.744 37.9131 106.744 37.3989 106.863 36.906C106.901 33.967 106.622 31.14 106.824 28.163V24.046C106.827 23.689 106.743 23.131 107.1 22.931ZM108.332 27.497C108.249 27.5186 108.175 27.5649 108.12 27.6298C108.064 27.6947 108.03 27.775 108.021 27.86C108.021 28.099 108.293 28.132 108.449 28.288C108.688 28.8205 108.773 29.4095 108.695 29.988C108.655 31.336 108.618 32.488 108.656 33.763C108.578 34.163 107.897 34.352 108.256 34.827L109.856 34.866C110.686 34.549 109.57 34.114 109.648 33.634C109.57 33.0778 109.614 32.5113 109.778 31.974C109.837 31.9464 109.903 31.9391 109.966 31.9532C110.03 31.9673 110.086 32.0021 110.128 32.052C110.538 32.8144 110.989 33.5548 111.477 34.27C111.56 34.4392 111.69 34.5813 111.85 34.68C112.011 34.7788 112.196 34.8301 112.385 34.828C112.541 34.75 112.785 34.634 112.696 34.4C111.951 33.8 111.801 32.883 111.165 32.169C111.042 31.93 111.127 31.774 111.165 31.533C111.718 31.1658 112.167 30.6605 112.465 30.067C112.518 29.6162 112.492 29.1596 112.387 28.718C112.228 28.3886 111.99 28.1044 111.693 27.8914C111.396 27.6784 111.05 27.5435 110.687 27.499C109.888 27.457 109.129 27.575 108.332 27.5V27.497ZM110.332 28.12C110.588 28.128 110.834 28.2239 111.027 28.3917C111.221 28.5594 111.351 28.7887 111.396 29.041C111.489 29.2563 111.531 29.4905 111.517 29.7248C111.504 29.9591 111.436 30.1869 111.318 30.39C111.203 30.5865 111.04 30.7512 110.846 30.8691C110.651 30.9869 110.429 31.0543 110.202 31.065C109.249 30.942 109.845 29.792 109.722 29.236C109.767 28.885 109.644 28.288 110.085 28.172C110.164 28.1441 110.246 28.1266 110.33 28.12H110.332Z" fill="white"/>
<path d="M90.444 50.158C90.9494 50.2354 91.4424 50.3793 91.91 50.586C94.128 50.819 96.352 50.186 98.539 50.664C99.446 51.098 98.929 52.091 99.045 52.843C99.0771 53.8774 98.9458 54.9105 98.656 55.904C98.056 57.571 97.864 59.323 97.268 60.95C97.027 61.229 96.38 61.301 96.619 61.78C96.9963 61.9362 97.4115 61.9769 97.812 61.897C97.8589 61.9107 97.9081 61.9144 97.9565 61.9078C98.0049 61.9013 98.0514 61.8846 98.093 61.859C98.1345 61.8334 98.1703 61.7993 98.1978 61.759C98.2254 61.7187 98.2442 61.673 98.253 61.625C98.175 60.913 97.975 60.114 98.486 59.562C98.5505 59.4915 98.6372 59.4453 98.7317 59.4311C98.8262 59.4169 98.9227 59.4356 99.005 59.484C99.322 60.47 99.005 61.417 99.083 62.455C99.043 63.486 99.2 64.713 99.122 65.75C99.122 65.945 99.16 66.23 98.927 66.308C98.291 66.431 97.695 66.114 97.059 66.23L95.671 66.269C94.796 66.269 93.888 66.19 93.012 66.23C92.1861 66.3236 91.3505 66.1851 90.599 65.83L90.366 65.558C90.326 62.302 90.404 59.2 90.288 55.868C90.4305 54.1233 90.4174 52.3694 90.249 50.627C90.367 50.471 90.2 50.282 90.444 50.158ZM96.4 54.167C95.8 54.68 95 54.517 94.247 54.478C94.0212 54.5433 93.7841 54.5596 93.5515 54.526C93.3189 54.4924 93.0961 54.4095 92.898 54.283C92.8559 54.2509 92.8073 54.2283 92.7556 54.2168C92.704 54.2052 92.6504 54.205 92.5986 54.2161C92.5468 54.2272 92.4981 54.2494 92.4557 54.2812C92.4133 54.3129 92.3783 54.3534 92.353 54.4C92.23 54.912 91.867 55.426 92.068 55.944C92.0897 55.9738 92.1175 55.9988 92.1495 56.0171C92.1815 56.0355 92.2171 56.0469 92.2538 56.0506C92.2905 56.0543 92.3276 56.0502 92.3626 56.0385C92.3977 56.0269 92.4298 56.0079 92.457 55.983C92.5455 55.7709 92.6818 55.5821 92.8553 55.4314C93.0287 55.2807 93.2347 55.172 93.457 55.114C93.6813 55.1836 93.8771 55.3239 94.015 55.514L93.898 57.447C93.936 58.4 93.852 59.438 93.937 60.353C94.131 60.989 93.028 61.263 93.548 61.897C93.6583 61.9455 93.7775 61.9705 93.898 61.9705C94.0185 61.9705 94.1377 61.9455 94.248 61.897C94.683 61.897 95.202 62.097 95.519 61.741C95.76 61.384 95.33 61.19 95.208 60.911C95.168 59.718 95.156 58.329 95.078 57.097C95.278 56.497 94.845 55.78 95.247 55.307C95.838 54.988 95.847 55.873 96.402 55.826C96.835 55.594 96.636 54.951 96.83 54.516C96.859 54.323 96.6 54.167 96.4 54.167ZM99.085 56.761C99.185 56.747 99.263 56.874 99.293 56.994L99.163 58.615C99.131 58.771 98.897 58.809 98.774 58.693C98.457 58.102 98.852 57.421 98.969 56.825C99 56.793 99.0396 56.7708 99.083 56.761H99.085Z" fill="white"/>
<path d="M108.553 50.068C108.781 50.052 109.026 50.057 108.968 50.353C108.611 52.967 109.047 55.439 108.929 58.097C109.047 60.161 108.813 62.067 108.929 64.129C108.851 64.649 109.085 65.278 108.734 65.712C107.917 66.1393 106.993 66.3196 106.075 66.231L101.444 66.192C100.844 66.116 100.483 66.742 99.8869 66.503C99.6869 65.952 100.166 65.403 99.8869 64.843C99.9511 63.8618 99.938 62.8771 99.8479 61.898C99.7638 61.1054 99.8033 60.3045 99.9649 59.524C100.043 59.368 100.21 59.485 100.328 59.563C100.534 59.8529 100.669 60.1868 100.723 60.5382C100.777 60.8896 100.748 61.2487 100.639 61.587C100.717 61.826 101.003 61.859 101.239 61.859C101.759 61.819 102.465 62.138 102.783 61.664C102.705 61.028 101.758 60.958 101.758 60.237C101.635 58.927 100.883 57.85 100.72 56.537C100.486 55.745 100.247 54.954 99.9679 54.202C99.9279 53.131 99.9279 52.21 99.9679 51.141C100.091 50.427 100.927 50.668 101.447 50.466C102.795 50.466 104.093 50.706 105.447 50.622C106.447 50.7096 107.452 50.5211 108.353 50.077C108.4 50.081 108.477 50.073 108.553 50.068ZM106.453 54.505C106.261 54.5107 106.076 54.5741 105.921 54.687C105.593 54.5739 105.241 54.5543 104.902 54.6302C104.564 54.7062 104.254 54.8748 104.006 55.1172C103.758 55.3596 103.583 55.6661 103.5 56.0026C103.416 56.339 103.428 56.692 103.534 57.022C104.085 58.41 105.953 58.522 106.466 59.954C106.498 60.169 106.467 60.3885 106.377 60.5864C106.287 60.7843 106.142 60.9522 105.96 61.07C105.712 61.1457 105.447 61.1519 105.196 61.0879C104.944 61.0239 104.715 60.8922 104.533 60.707C104.053 60.467 104.287 59.76 103.733 59.76C103.133 60.039 103.585 60.831 103.461 61.381C103.507 61.497 103.539 61.705 103.733 61.666C104.333 61.153 104.855 61.899 105.484 61.861C106.052 61.8368 106.589 61.5951 106.984 61.186C107.354 60.7161 107.526 60.1207 107.464 59.526C107.18 57.853 105.24 57.776 104.442 56.504C104.371 56.3685 104.338 56.2169 104.345 56.0643C104.352 55.9117 104.399 55.7636 104.481 55.635C104.843 55.24 105.356 55.519 105.791 55.557C106.146 55.752 106.279 56.503 106.791 56.193C106.928 55.7671 106.928 55.3089 106.791 54.883C106.8 54.8345 106.797 54.7846 106.784 54.7372C106.771 54.6897 106.747 54.6459 106.714 54.609C106.681 54.5722 106.64 54.5432 106.595 54.5243C106.549 54.5054 106.5 54.4971 106.451 54.5L106.453 54.505ZM99.9149 58.205C99.9783 58.2284 100.031 58.2745 100.062 58.3344C100.093 58.3943 100.101 58.4637 100.084 58.529C100.046 58.569 100.045 58.646 99.9669 58.646C99.7669 58.686 99.8109 58.498 99.8109 58.374C99.8209 58.285 99.8419 58.236 99.8759 58.218C99.8864 58.2088 99.8992 58.2025 99.9129 58.2L99.9149 58.205Z" fill="white"/>
<path d="M93.843 23.385C94.166 23.371 94.312 23.764 94.414 23.969C94.5857 24.2481 94.6503 24.5799 94.596 24.903C94.714 28.197 94.596 31.609 94.596 34.903V39.041C94.596 39.197 94.532 39.313 94.414 39.313C93.903 39.073 93.778 38.513 93.584 38.042C93.624 35.942 93.623 34.073 93.623 31.971C93.661 29.471 93.546 26.809 93.662 24.271C93.5765 23.9896 93.5903 23.6874 93.701 23.415C93.7462 23.3968 93.7943 23.3866 93.843 23.385V23.385Z" fill="white"/>
<path d="M78.2111 23.566C78.4111 23.528 78.4111 23.721 78.4441 23.799C78.3723 23.8812 78.3306 23.9854 78.3259 24.0944C78.3212 24.2035 78.3537 24.3109 78.4181 24.399C78.5291 25.631 78.2181 26.967 78.4181 28.161C78.3351 29.861 78.4181 31.501 78.4181 33.246C78.3351 34.556 78.3661 36.178 78.3661 37.488C78.4821 38.365 78.4821 39.356 77.6911 39.836C77.3721 39.798 77.5361 39.441 77.4581 39.278C77.5361 38.488 77.4131 37.728 77.4581 36.891C77.6141 34.591 77.3341 32.216 77.4971 29.873V24.747C77.6141 24.313 77.7311 23.769 78.2111 23.566Z" fill="white"/>
<path d="M93.4141 39.236C93.8341 39.287 93.9281 39.836 94.2051 40.118C94.2831 40.274 94.0951 40.468 93.9331 40.468H91.5081C90.5551 40.501 89.8031 40.546 88.8081 40.546C88.1341 40.423 87.3481 40.946 86.9531 40.235C86.8301 40.001 87.1081 39.835 87.2641 39.755C87.8201 39.523 88.3351 39.918 88.9241 39.755C90.3181 39.679 91.9411 39.845 93.2051 39.249C93.2737 39.234 93.3442 39.2296 93.4141 39.236V39.236Z" fill="white"/>
<path d="M78.8861 39.353C79.2031 39.315 79.4041 39.523 79.6381 39.638C81.2201 39.91 83.0101 39.638 84.5541 39.794C84.7931 39.872 85.1131 39.904 85.1901 40.183C85.1901 40.346 85.1901 40.583 84.9571 40.624C83.0111 40.267 80.9941 40.709 79.0571 40.468C78.8181 40.43 78.2911 40.577 78.2571 40.222C78.2743 40.0341 78.3418 39.8542 78.4525 39.7013C78.5632 39.5484 78.7129 39.4281 78.8861 39.353V39.353Z" fill="white"/>
<path d="M121.9 23.476C122.206 23.519 122.249 23.925 122.419 24.164L122.575 24.631C122.653 27.131 122.612 29.703 122.536 32.323C122.458 33.593 122.613 34.704 122.575 36.023C122.387 37.094 122.691 38.209 122.497 39.24C122.468 39.2691 122.433 39.2915 122.395 39.3055C122.356 39.3195 122.315 39.3249 122.274 39.3212C122.233 39.3174 122.194 39.3047 122.158 39.284C122.123 39.2632 122.092 39.2349 122.069 39.201C121.857 39.0186 121.694 38.7853 121.597 38.5229C121.499 38.2606 121.47 37.9778 121.511 37.701C121.511 34.445 121.511 31.338 121.55 28.167C121.706 26.694 121.472 25.397 121.55 23.899C121.588 23.736 121.55 23.541 121.745 23.499C121.795 23.4837 121.848 23.4759 121.9 23.476V23.476Z" fill="white"/>
<path d="M105.829 23.67C105.868 23.67 105.909 23.704 105.959 23.77C106.09 24.2692 106.143 24.7857 106.115 25.301C105.999 26.601 106.27 27.961 106.076 29.309C106.114 32.37 106.076 35.497 106.037 38.674C105.837 38.953 105.837 39.387 105.437 39.465C105.203 39.503 105.243 39.238 105.204 39.115C105.36 38.2 105.08 37.37 105.243 36.495C105.118 33.044 105.243 29.937 105.204 26.689C105.282 25.689 105.041 24.867 105.476 23.989C105.627 23.902 105.71 23.663 105.826 23.665L105.829 23.67Z" fill="white"/>
<path d="M106.542 39.275C107.549 39.4852 108.574 39.5937 109.603 39.599C110.647 39.5122 111.699 39.5646 112.729 39.755C112.781 39.7921 112.825 39.8398 112.858 39.895C112.89 39.9501 112.911 40.0115 112.918 40.0751C112.926 40.1388 112.92 40.2033 112.9 40.2644C112.881 40.3256 112.849 40.382 112.807 40.43C112.055 40.63 111.34 40.19 110.55 40.274L106.308 40.313C106.145 40.275 105.958 40.183 105.958 39.989C105.958 39.672 106.308 39.476 106.542 39.275Z" fill="white"/>
<path d="M121.032 39.314C121.512 39.314 121.797 39.714 122.07 40.066C122.148 40.222 122.07 40.507 121.837 40.429H114.845C114.753 40.3717 114.681 40.2872 114.639 40.1872C114.598 40.0872 114.588 39.9767 114.612 39.871C115.602 39.5879 116.642 39.5214 117.66 39.676C118.797 39.7584 119.939 39.6357 121.032 39.314V39.314Z" fill="white"/>
<path d="M109.837 50.639C110.158 50.8494 110.406 51.1525 110.55 51.508C110.744 55.036 110.667 58.727 110.667 62.184L110.589 66.737C110.518 66.9 110.356 66.783 110.278 66.698C110.012 66.4594 109.814 66.1554 109.702 65.8163C109.591 65.4771 109.57 65.1147 109.642 64.765C109.597 62.54 109.563 59.841 109.603 57.656L109.642 56.268V53.959C109.577 52.931 109.577 51.9 109.642 50.872L109.837 50.639Z" fill="white"/>
<path d="M89.2501 50.95C89.9171 51.066 89.3661 51.788 89.5221 52.221C89.5601 56.463 89.5611 60.667 89.5611 65.232C89.6057 65.5456 89.5668 65.8654 89.4483 66.1592C89.3298 66.4529 89.1358 66.7102 88.8861 66.905C88.8278 66.9075 88.7709 66.8872 88.7273 66.8483C88.6838 66.8095 88.6572 66.7552 88.6531 66.697L88.6921 65.114C88.6921 60.627 88.6141 56.214 88.6921 51.896C88.8122 51.5462 89.0021 51.2244 89.2501 50.95V50.95Z" fill="white"/>
<path d="M90.12 66.387C90.555 66.465 90.878 66.749 91.313 66.867C93.297 67.022 95.399 66.945 97.423 66.945C97.8482 66.8788 98.2833 66.9611 98.655 67.178C98.733 67.294 98.642 67.457 98.564 67.578L98.292 67.734L91.858 67.7C91.109 67.6125 90.3542 67.5865 89.601 67.622C89.483 67.622 89.251 67.654 89.251 67.453C89.3905 66.998 89.7024 66.6154 90.12 66.387Z" fill="white"/>
<path d="M109.136 66.387C109.526 66.395 109.776 67.049 110.044 67.347C110.122 67.664 109.719 67.657 109.525 67.697C108.052 67.613 106.709 67.697 105.244 67.697C103.816 67.774 102.3 67.657 100.834 67.697C100.634 67.573 100.434 67.348 100.601 67.152C101.353 66.9023 102.152 66.8311 102.936 66.944C104.882 66.868 106.836 67.151 108.696 66.633C108.748 66.5635 108.814 66.5057 108.89 66.4634C108.966 66.421 109.05 66.395 109.136 66.387V66.387Z" fill="white"/>
<path d="M86.267 40.676C86.4702 40.7419 86.6549 40.855 86.806 41.0061C86.957 41.1571 87.0701 41.3418 87.136 41.545C87.104 41.945 87.11 42.485 86.669 42.645C86.5481 42.7001 86.4146 42.7219 86.2824 42.7082C86.1502 42.6944 86.0241 42.6457 85.917 42.567C85.482 42.367 85.631 41.937 85.593 41.542C85.5984 41.3447 85.6667 41.1542 85.7879 40.9984C85.9092 40.8426 86.077 40.7296 86.267 40.676V40.676Z" fill="white"/>
<path d="M113.742 40.507C113.902 40.5145 114.056 40.5673 114.187 40.6592C114.318 40.7511 114.42 40.8783 114.481 41.026C114.602 41.1976 114.669 41.4006 114.676 41.6102C114.683 41.8197 114.629 42.0268 114.52 42.206C114.326 42.406 114.008 42.335 113.768 42.375C113.634 42.3424 113.51 42.2783 113.405 42.188C113.301 42.0978 113.22 41.984 113.168 41.856C113.109 41.6868 113.089 41.506 113.112 41.3281C113.135 41.1502 113.198 40.98 113.298 40.831C113.332 40.7395 113.393 40.6601 113.472 40.6025C113.55 40.5449 113.645 40.5117 113.742 40.507Z" fill="white"/>
<path d="M99.6 67.684C99.86 67.689 100.056 67.939 100.158 68.177C100.392 68.577 100.158 69.001 100.197 69.477C100.123 69.5832 100.02 69.6662 99.9006 69.7167C99.7812 69.7671 99.65 69.7828 99.522 69.762C99.3731 69.7412 99.2335 69.6773 99.1205 69.5782C99.0075 69.479 98.926 69.3489 98.886 69.204C98.607 68.885 98.803 68.452 98.886 68.104C99.086 67.948 99.211 67.74 99.486 67.704C99.5231 67.6927 99.5614 67.686 99.6 67.684Z" fill="white"/>
<path d="M119.687 77.3V77.283L119.253 77.628C119.468 77.471 119.614 77.358 119.687 77.301V77.3ZM139.354 31C139.588 31.1568 139.863 31.241 140.145 31.242C140.187 31.242 140.228 31.242 140.269 31.236C140.484 31.167 140.68 31.0477 140.84 30.888C141.041 30.6875 141.177 30.4319 141.233 30.1538C141.288 29.8756 141.259 29.5873 141.151 29.3252C141.042 29.0632 140.859 28.8392 140.623 28.6817C140.387 28.5241 140.11 28.44 139.826 28.44C139.784 28.44 139.742 28.44 139.701 28.446C139.474 28.5211 139.268 28.652 139.104 28.8266C138.94 29.0013 138.823 29.2142 138.762 29.446C138.908 29.5027 139.041 29.5895 139.151 29.7006C139.262 29.8118 139.348 29.9449 139.404 30.0914C139.459 30.2379 139.484 30.3944 139.475 30.551C139.467 30.7075 139.425 30.8604 139.354 31V31ZM137.031 31.27C136 29.6495 135.099 27.9498 134.337 26.187C134.207 25.752 133.772 26.013 133.772 26.013C133.902 26.882 133.424 26.713 133.424 26.713C132.599 26.626 132.724 27.013 132.724 27.013C133.332 27.752 135.244 31.097 135.244 31.097C136.33 33.052 135.679 32.878 135.679 32.878C135.526 32.6053 135.285 32.3924 134.996 32.2742C134.706 32.156 134.385 32.1393 134.085 32.227C134.162 32.4355 134.201 32.6558 134.202 32.878V32.9C134.873 33.018 136.436 33.658 138.118 36.893C138.485 37.1403 138.828 37.4216 139.142 37.733C139.248 37.361 139.374 36.9954 139.522 36.638C137.1 33.673 138.422 31.488 138.422 31.488L138.437 31.479C138.399 31.446 138.358 31.415 138.322 31.379L138.813 30.888C138.827 30.901 138.842 30.914 138.856 30.926C138.875 30.7931 138.86 30.6577 138.813 30.532C138.113 29.75 137.857 30.706 137.857 30.706C137.639 31.706 137.032 31.27 137.032 31.27H137.031ZM141.723 35.876C142.146 36.5987 142.532 37.3427 142.878 38.105C143.098 37.8733 143.331 37.6555 143.578 37.453C143.679 36.6478 143.611 35.8304 143.378 35.053C143.378 35.053 142.466 33.011 143.465 31.794C143.465 31.794 144.165 30.665 142.596 31.751C142.058 32.1811 141.655 32.7574 141.437 33.4107C141.218 34.064 141.192 34.7666 141.363 35.434C141.501 35.5676 141.622 35.7178 141.723 35.881V35.876ZM140.941 36.136C140.941 36.136 139.948 36.021 139.681 38.3C140.25 38.9993 140.721 39.7731 141.081 40.6C141.462 39.908 141.904 39.2514 142.402 38.638C142.162 37.918 141.524 36.176 140.941 36.141V36.136ZM133.034 25.361C133.099 25.3263 133.166 25.2949 133.234 25.267C133.291 24.2448 133.096 23.2243 132.666 22.2953C132.236 21.3662 131.584 20.557 130.768 19.939V22.9C131.623 23.6255 132.384 24.4541 133.034 25.367V25.361ZM131.466 17.386C131.276 17.0629 131.041 16.7691 130.766 16.514V18.864L130.797 18.882C130.913 18.3407 131.141 17.8297 131.467 17.382L131.466 17.386ZM137.813 38.568C137.813 38.568 137.943 40.868 137.031 41.609C136.864 41.8638 136.786 42.1663 136.808 42.47C137.992 43.616 138.849 45.0568 139.292 46.644C139.441 45.1383 139.262 43.6183 138.769 42.188C138.769 42.188 139.581 42.303 140.739 49.37C140.814 49.3915 140.893 49.3952 140.969 49.3808C141.046 49.3663 141.118 49.3342 141.18 49.287C141.506 48.068 142.788 42.127 138.247 37.742C138.247 37.749 137.639 37.141 137.813 38.575V38.568ZM133.913 25.141C134.098 25.1492 134.277 25.2103 134.429 25.317C134.574 25.217 134.711 25.117 134.842 25.029C135.193 23.5267 135.048 21.9512 134.429 20.538C133.967 19.7544 133.589 18.9246 133.3 18.062C132.865 16.976 132.474 17.362 132.474 17.362C131.85 17.7959 131.424 18.4594 131.289 19.207C132.178 19.9073 132.882 20.815 133.339 21.8507C133.795 22.8863 133.991 24.0182 133.908 25.147L133.913 25.141ZM135.331 26.793C136.346 26.659 136.559 25.404 136.559 25.404C136.705 24.6218 136.953 23.8622 137.298 23.145C138.558 22.407 137.733 22.189 137.733 22.189C137.338 22.1169 136.933 22.1355 136.546 22.2434C136.16 22.3514 135.803 22.5458 135.503 22.812C135.513 23.4312 135.479 24.0504 135.403 24.665C135.721 24.4593 136.05 24.2711 136.388 24.101C135.99 24.4186 135.683 24.835 135.496 25.3086C135.31 25.7822 135.251 26.2964 135.325 26.8L135.331 26.793ZM139.717 63.955C139.599 65.2181 139.267 66.4519 138.736 67.604C139.401 67.3402 140.094 67.153 140.802 67.046C141.368 66.4006 141.731 65.6027 141.846 64.752C142.01 63.0727 142.44 61.4302 143.12 59.886C143.728 58.815 143.178 58.727 143.178 58.727C142.165 58.9158 141.235 59.412 140.514 60.148V60.177H140.489C140.155 60.5128 139.862 60.8864 139.614 61.29C139.695 61.7668 139.743 62.2486 139.757 62.732C140.871 61.385 140.907 62.032 140.907 62.032C140.433 62.256 140.007 63.197 139.721 63.958L139.717 63.955ZM130.77 24.313V26.566C131.142 26.7291 131.537 26.8356 131.94 26.882C131.815 25.9285 131.405 25.0348 130.764 24.318L130.77 24.313ZM140.686 55.687C140.686 55.687 140.223 55.397 141.386 50.187C141.386 50.187 140.807 51.172 140.401 51.345C139.841 49.7848 139.566 48.1365 139.59 46.479C139.59 46.479 139.705 50.65 139.01 50.824C139.01 50.824 138.604 49.724 138.083 48.68C138.55 50.2828 138.823 51.936 138.895 53.604C138.895 53.604 138.489 53.546 138.316 52.85C137.749 52.117 137.033 51.5121 136.216 51.075C136.202 51.4818 136.073 51.8764 135.844 52.213C136.79 52.5319 137.577 53.2012 138.044 54.083C138.525 55.1915 138.593 56.4356 138.236 57.59C138.755 58.4374 139.148 59.3561 139.401 60.317C139.545 60.156 139.692 60.008 139.841 59.869C139.877 58.9341 140.165 58.0263 140.676 57.2423C141.187 56.4584 141.9 55.8275 142.741 55.417C142.641 55.1649 142.59 54.8962 142.589 54.625C142.589 54.598 142.589 54.571 142.589 54.545C141.874 54.7786 141.222 55.1707 140.68 55.692L140.686 55.687ZM135.776 61.725C136.054 61.3043 136.292 60.8587 136.487 60.394C136.131 59.0694 135.921 57.7095 135.863 56.339C135.863 56.339 135.863 55.514 135.124 56.774C134.606 57.4555 134.304 58.277 134.258 59.132C134.707 60.2913 134.921 61.5282 134.888 62.771C135.159 62.447 135.457 62.094 135.771 61.73L135.776 61.725ZM133.329 64.666C133.329 64.666 133.761 64.126 134.414 63.338C134.344 61.891 133.928 57.538 131.475 56.382C131.475 56.382 131.127 55.904 131.345 57.816C131.234 58.6714 131.023 59.5106 130.714 60.316C131.385 61.1687 131.907 62.1289 132.257 63.156C132.257 63.156 132.706 60.636 131.939 59.593C131.934 59.6 132.977 59.429 133.324 64.672L133.329 64.666ZM142.029 44.003C142.26 43.0339 142.673 42.1175 143.246 41.303C142.935 42.0156 142.772 42.7843 142.768 43.562C142.709 44.2355 142.498 44.887 142.152 45.468C142.185 46.5179 142.122 47.5685 141.964 48.607C142.968 47.7427 143.756 46.6556 144.265 45.4326C144.775 44.2096 144.991 42.8845 144.897 41.563C144.897 41.563 144.071 38.826 144.854 37.957C144.854 37.957 145.028 37.218 144.029 38.218C142.955 39.1896 142.097 40.3749 141.508 41.698C141.751 42.4506 141.924 43.2238 142.026 44.008L142.029 44.003ZM137.024 40.155C137.042 40.133 137.058 40.112 137.077 40.09C137.258 39.6281 137.38 39.1453 137.441 38.653C136.782 37.819 135.247 36.063 133.862 35.832C133.867 36.7472 133.809 37.6617 133.688 38.569C133.734 39.2311 133.93 39.8742 134.26 40.45C134.902 40.8539 135.513 41.3045 136.089 41.798C136.172 41.5576 136.272 41.3236 136.389 41.098C135.969 39.9676 135.427 38.8868 134.771 37.875C134.38 37.136 134.423 37.05 134.423 37.05C135.163 37.406 136.529 39.411 137.021 40.16L137.024 40.155ZM133.324 43.289C134.024 48.126 136.51 49.34 137.464 49.631C136.739 47.1084 135.553 44.7423 133.964 42.653C133.964 42.653 135.164 43.51 138.804 48.56C139.954 44.269 132.863 40.335 132.863 40.335C131.589 39.408 131.705 40.22 131.705 40.22C132.223 40.573 133.324 43.295 133.324 43.295V43.289ZM133.543 49.602C133.215 49.7178 132.937 49.946 132.761 50.2463C132.584 50.5466 132.52 50.8997 132.578 51.2431C132.637 51.5865 132.815 51.8982 133.081 52.1231C133.347 52.3479 133.684 52.4715 134.032 52.472C134.107 52.4714 134.183 52.465 134.257 52.453C134.607 52.3329 134.898 52.0861 135.074 51.7614C135.25 51.4366 135.298 51.0576 135.208 50.6992C135.119 50.3409 134.898 50.0293 134.589 49.8261C134.28 49.6229 133.907 49.543 133.542 49.602H133.543ZM133.4 33.4C133.512 33.1616 133.543 32.8934 133.489 32.6356C133.436 32.3779 133.3 32.1446 133.102 31.9707C132.904 31.7969 132.655 31.6919 132.393 31.6716C132.13 31.6513 131.868 31.7168 131.646 31.8581C131.424 31.9995 131.254 32.2091 131.161 32.4555C131.068 32.7019 131.058 32.9717 131.132 33.2245C131.205 33.4773 131.359 33.6993 131.57 33.8571C131.781 34.015 132.037 34.1002 132.3 34.1C132.531 34.1005 132.758 34.0349 132.952 33.9108C133.147 33.7868 133.303 33.6095 133.4 33.4V33.4ZM125.037 70.173C125.133 69.5843 125.115 68.9827 124.983 68.401C124.807 68.5984 124.594 68.7603 124.357 68.878C124.527 69.3207 124.553 69.8054 124.433 70.264C124.619 70.225 124.822 70.2 125.032 70.172L125.037 70.173ZM110.488 82.059C110.701 81.988 110.912 81.915 111.119 81.841C111.097 81.5891 111.123 81.3353 111.195 81.093C110.904 81.3709 110.665 81.6979 110.488 82.059ZM131.252 27.453C131.086 27.4093 130.923 27.3559 130.764 27.293V28.081C130.809 27.758 131.252 27.452 131.252 27.452V27.453ZM132.6 46.481C133.05 46.9653 133.557 47.394 134.109 47.758C133.782 47.0884 133.52 46.3893 133.325 45.67C133.108 44.7321 132.794 43.8195 132.387 42.947C131.8 42.7179 131.156 42.6774 130.544 42.831C130.544 42.831 129.644 42.788 131.036 44.482C131.596 45.1174 132.118 45.7849 132.6 46.481V46.481ZM87.3291 76.307C86.9811 75.264 86.5901 76.09 86.5901 76.09C85.7221 77.625 86.3901 79.875 86.7491 80.836C87.1384 81.0113 87.5261 81.178 87.9121 81.336C87.9501 80.643 87.9771 78.805 87.2411 78.174C87.2411 78.174 87.1541 77.306 88.3711 78.874C89.0734 79.8316 89.5782 80.9194 89.8561 82.074C90.3341 82.2373 90.8091 82.3873 91.2811 82.524C91.3372 82.1266 91.3123 81.722 91.208 81.3345C91.1037 80.9469 90.9221 80.5845 90.6741 80.269C89.4418 79.052 88.3222 77.726 87.3291 76.307V76.307ZM84.0291 75.786C84.0291 75.786 84.3771 75.742 84.6811 77.086C84.6811 77.086 85.0321 78.342 85.7631 78.538C85.7431 77.825 85.7721 77.138 85.8091 76.612C85.2625 75.5275 84.5767 74.519 83.7691 73.612C82.4221 72.222 82.8561 73.656 82.8561 73.656C83.0933 74.1724 83.1965 74.7402 83.1561 75.307C82.6864 76.3862 82.5445 77.5797 82.7481 78.739C83.4281 79.1463 84.1034 79.5247 84.7741 79.874C84.708 78.9054 84.4994 77.9518 84.1551 77.044C83.9859 76.6473 83.9412 76.2086 84.0271 75.786H84.0291ZM133.201 28.786C133.022 28.555 132.901 28.413 132.901 28.413C132.423 27.413 130.815 28.326 130.815 28.326C130.787 28.284 130.768 28.2361 130.761 28.186V29.229C131.485 28.7683 132.36 28.6076 133.2 28.781L133.201 28.786ZM89.3271 10.616C88.7275 10.6345 88.1374 10.7704 87.5901 11.016C88.7813 11.3536 90.0411 11.3667 91.2391 11.054C91.9034 10.5246 92.6162 10.0592 93.3681 9.664C94.7151 9.012 91.8911 8.231 91.8911 8.231C90.7004 8.14987 89.5245 8.53299 88.6101 9.3L88.7191 9.311C89.5597 9.19161 90.4154 9.23609 91.2391 9.442C90.9351 10.53 89.3271 10.616 89.3271 10.616ZM116.608 75.271C116.571 74.7044 116.674 74.1373 116.908 73.62C116.908 73.62 117.334 72.187 116.008 73.577C115.215 74.4863 114.542 75.4947 114.008 76.577C114.044 77.102 114.072 77.79 114.052 78.503C114.769 78.303 115.113 77.051 115.113 77.051C115.413 75.704 115.753 75.751 115.753 75.751C115.837 76.1744 115.793 76.6132 115.625 77.011C115.278 78.0217 115.063 79.0731 114.986 80.139L114.366 80.49C115.45 79.9748 116.506 79.4024 117.529 78.775L116.946 79.097C117.206 77.8159 117.089 76.487 116.609 75.271H116.608ZM119.293 76.01C119.761 75.271 119.293 75.271 119.293 75.271C118.561 75.242 117.905 75.99 117.543 76.501C117.555 76.7653 117.614 77.0254 117.717 77.269C117.955 77.6305 118.046 78.0685 117.974 78.495C118.499 78.159 118.911 77.873 119.207 77.658C118.869 77.179 119.294 76.01 119.294 76.01H119.293ZM112.515 76.27C111.542 77.6838 110.444 79.0071 109.234 80.224C108.974 80.5597 108.789 80.9471 108.691 81.3601C108.593 81.7731 108.584 82.2023 108.665 82.619C109.127 82.492 109.575 82.356 110.013 82.219C110.259 80.999 110.763 79.846 111.493 78.838C112.687 77.274 112.601 78.143 112.601 78.143C111.773 78.867 111.93 81.191 111.958 81.531C112.303 81.3977 112.636 81.262 112.958 81.124C113.223 80.474 114.204 77.802 113.237 76.058C113.241 76.053 112.857 75.227 112.516 76.27H112.515ZM107.359 81.136C106.123 79.876 106.208 83.136 106.208 83.136C106.201 83.158 106.194 83.179 106.187 83.2C106.763 83.0873 107.325 82.963 107.872 82.827C107.848 81.52 107.36 81.136 107.36 81.136H107.359ZM69.1211 27.842V27.41C69.0071 27.451 68.8911 27.487 68.7771 27.516C68.9058 27.6088 69.0215 27.7185 69.1211 27.842ZM62.6211 37.793C63.7708 36.4385 65.2098 35.3593 66.8321 34.635C66.4496 34.4302 66.1475 34.1021 65.9751 33.704C64.5081 33.572 63.2461 35.792 62.7271 36.863C62.7958 37.0263 62.8132 37.2066 62.7771 37.38C62.7072 37.5097 62.6564 37.6488 62.6261 37.793H62.6211ZM58.8501 49.358C58.9121 49.4056 58.9844 49.4379 59.0611 49.4525C59.1379 49.4671 59.217 49.4635 59.2921 49.442C60.4501 42.374 61.2621 42.259 61.2621 42.259C60.7686 43.6889 60.5902 45.2087 60.7391 46.714C61.182 45.1275 62.0393 43.6874 63.2231 42.542C63.2454 42.238 63.1671 41.935 63.0001 41.68C62.0881 40.941 62.2181 38.639 62.2181 38.639C62.3921 37.206 61.7841 37.814 61.7841 37.814C57.2441 42.2 58.5231 48.136 58.8501 49.358ZM59.0901 36.206C58.5061 36.24 57.8691 37.982 57.6271 38.712C58.125 39.3253 58.5671 39.982 58.9481 40.674C59.3079 39.8472 59.7789 39.0734 60.3481 38.374C60.0831 36.092 59.0891 36.206 59.0891 36.206H59.0901ZM69.1211 24.581C68.5502 25.2507 68.1944 26.077 68.1001 26.952C68.4509 26.911 68.795 26.8253 69.1241 26.697L69.1211 24.581ZM68.3281 40.29C68.3281 40.29 68.4441 39.478 67.1701 40.405C67.1701 40.405 60.0801 44.338 61.2301 48.63C64.8701 43.58 66.0691 42.723 66.0691 42.723C64.4807 44.8128 63.294 47.1792 62.5691 49.702C63.5231 49.411 66.0121 48.197 66.7101 43.36C66.7071 43.36 67.8071 40.637 68.3281 40.29ZM67.7351 34.164C67.9758 34.164 68.2112 34.0926 68.4113 33.9588C68.6115 33.8251 68.7675 33.6349 68.8595 33.4125C68.9516 33.1901 68.9757 32.9453 68.9286 32.7092C68.8816 32.4731 68.7656 32.2563 68.5953 32.0861C68.425 31.9159 68.208 31.8001 67.9719 31.7533C67.7358 31.7064 67.491 31.7307 67.2687 31.8229C67.0463 31.9152 66.8563 32.0713 66.7227 32.2716C66.5891 32.4719 66.5179 32.7073 66.5181 32.948C66.5186 33.2705 66.647 33.5797 66.8752 33.8076C67.1033 34.0356 67.4126 34.1637 67.7351 34.164ZM69.1211 20.113C68.3497 20.7391 67.7374 21.5387 67.334 22.4466C66.9306 23.3545 66.7477 24.3449 66.8001 25.337C66.8684 25.3646 66.9352 25.396 67.0001 25.431C67.6177 24.5693 68.3305 23.7799 69.1251 23.078V20.113H69.1211ZM66.8311 28.846C67.6126 28.6845 68.4262 28.8117 69.1211 29.204V28.339C68.7781 28.166 67.5371 27.615 67.1261 28.474C67.1271 28.473 67.0101 28.614 66.8311 28.846V28.846ZM64.2001 52.282C63.9715 51.9449 63.8428 51.5501 63.8291 51.143C63.0118 51.58 62.2961 52.1849 61.7291 52.918C61.5551 53.618 61.1501 53.672 61.1501 53.672C61.222 52.0038 61.4943 50.3502 61.9611 48.747C61.4391 49.79 61.0341 50.891 61.0341 50.891C60.3341 50.718 60.4551 46.546 60.4551 46.546C60.4792 48.2035 60.2045 49.8519 59.6441 51.412C59.2381 51.239 58.6591 50.253 58.6591 50.253C59.8181 55.466 59.3591 55.753 59.3591 55.753C58.7351 55.1575 57.9708 54.7292 57.1371 54.508C57.1371 54.546 57.1431 54.585 57.1431 54.623C57.1428 54.8705 57.0998 55.1161 57.0161 55.349C57.9311 55.7273 58.7179 56.361 59.2825 57.1744C59.8471 57.9878 60.1656 58.9465 60.2001 59.936C60.3491 60.075 60.5001 60.223 60.6401 60.384C60.8922 59.4238 61.283 58.5055 61.8001 57.658C61.4457 56.5026 61.5166 55.2586 62.0001 54.151C62.4666 53.269 63.2542 52.5999 64.2001 52.282V52.282ZM74.7831 68.306C74.6487 68.8818 74.6215 69.4774 74.7031 70.063C74.8411 70.078 74.9771 70.099 75.1101 70.125C75.0467 69.6587 75.095 69.184 75.2511 68.74C75.0737 68.6202 74.9159 68.4738 74.7831 68.306V68.306ZM73.6001 11.92C73.2796 12.4876 72.8472 12.9843 72.3291 13.38H73.9001C74.3001 12.328 73.6001 11.92 73.6001 11.92ZM76.4001 65.663C76.1293 65.6628 75.8645 65.7429 75.6392 65.8932C75.414 66.0435 75.2384 66.2573 75.1346 66.5074C75.0308 66.7576 75.0036 67.0328 75.0563 67.2985C75.109 67.5641 75.2393 67.8081 75.4307 67.9997C75.6221 68.1912 75.8661 68.3217 76.1316 68.3746C76.3972 68.4275 76.6725 68.4005 76.9228 68.2969C77.173 68.1933 77.3868 68.0178 77.5373 67.7927C77.6878 67.5675 77.7681 67.3028 77.7681 67.032C77.7678 66.6692 77.6236 66.3213 77.3672 66.0646C77.1107 65.808 76.7629 65.6635 76.4001 65.663V65.663ZM83.1581 11.79C81.5511 11.833 82.4581 11.269 82.4581 11.269C82.9974 11.4127 83.563 11.4274 84.1091 11.312C84.6573 11.1635 85.2174 11.0632 85.7831 11.012C86.0716 10.787 86.403 10.6233 86.7571 10.531C86.6571 10.469 86.6831 10.484 86.7571 10.531C87.5376 10.3327 88.3422 10.2458 89.1471 10.273C91.5361 9.752 85.7141 9.573 85.7141 9.573C86.189 9.33683 86.7163 9.22566 87.2461 9.25C88.402 8.48108 89.7232 7.99623 91.1021 7.835C94.1431 7.966 94.3171 9.182 94.3171 9.182V9.196C94.4451 9.182 94.5701 9.174 94.6941 9.169C95.0189 9.11305 95.3265 8.98335 95.5933 8.78988C95.8601 8.5964 96.079 8.34432 96.2331 8.053C96.2331 8.053 96.4071 7.705 95.4941 7.705C95.4941 7.705 94.8421 7.314 94.3211 6.923C94.3211 6.923 90.8891 5.272 86.8921 8.661C86.8921 8.661 86.5451 8.705 87.5001 7.705C88.0987 7.25037 88.7223 6.82971 89.3681 6.445C89.3681 6.445 90.1501 6.01 89.7601 5.576C89.7601 5.576 89.5861 5.098 88.7601 6.011C88.3933 6.22983 87.9696 6.33428 87.5431 6.311C86.9411 6.55713 86.4022 6.93564 85.9665 7.41845C85.5308 7.90127 85.2094 8.476 85.0261 9.1C85.0261 9.1 84.5491 9.8 82.3331 10.143C82.3331 10.143 81.3331 10.664 80.5951 11.099C80.5951 11.099 79.8951 11.54 79.9951 10.991C79.6759 11.2576 79.273 11.4035 78.8571 11.403C78.8091 11.403 78.7571 11.403 78.7151 11.396C78.5931 12.336 77.5001 13.04 76.8391 13.384H78.9111C79.9961 11.846 83.5931 12.359 83.5931 12.359C84.8531 12.007 83.1581 11.79 83.1581 11.79ZM60.2831 62.8C60.2972 62.3159 60.345 61.8334 60.4261 61.356C60.1782 60.952 59.8842 60.5782 59.5501 60.242H59.5241V60.213C58.8021 59.4793 57.8715 58.9859 56.8591 58.8C56.8591 58.8 56.3081 58.886 56.9171 59.958C57.5976 61.5021 58.028 63.1446 58.1921 64.824C58.3055 65.6769 58.6688 66.4771 59.2361 67.124C59.943 67.2313 60.6354 67.4185 61.3001 67.682C60.7683 66.5298 60.4363 65.2955 60.3181 64.032C60.0371 63.271 59.6061 62.332 59.1321 62.106C59.1321 62.106 59.1681 61.462 60.2821 62.806L60.2831 62.8ZM66.0001 52.542C66.2922 52.542 66.5777 52.4554 66.8206 52.2931C67.0634 52.1309 67.2527 51.9003 67.3646 51.6305C67.4764 51.3606 67.5057 51.0637 67.4488 50.7772C67.3919 50.4907 67.2513 50.2276 67.0448 50.021C66.8384 49.8144 66.5753 49.6736 66.2888 49.6165C66.0024 49.5594 65.7055 49.5885 65.4356 49.7001C65.1657 49.8118 64.9349 50.0009 64.7725 50.2437C64.6101 50.4865 64.5233 50.7719 64.5231 51.064C64.5234 51.4557 64.679 51.8314 64.9559 52.1085C65.2328 52.3856 65.6084 52.5415 66.0001 52.542V52.542ZM69.7001 42.579C69.7391 42.835 69.7791 43.089 69.8221 43.342C69.7788 43.0887 69.7381 42.8343 69.7001 42.579ZM67.7781 63.23C68.1285 62.2029 68.6506 61.2426 69.3221 60.39C69.0133 59.5847 68.8015 58.7454 68.6911 57.89C68.9081 55.979 68.5611 56.457 68.5611 56.457C66.1081 57.611 65.6921 61.966 65.6221 63.413C66.2761 64.2 66.7081 64.74 66.7081 64.74C67.0561 59.498 68.0981 59.671 68.0981 59.671C67.3301 60.71 67.7781 63.23 67.7781 63.23ZM67.6441 43.013C67.2377 43.8852 66.9237 44.7975 66.7071 45.735C66.5123 46.4547 66.2494 47.1541 65.9221 47.824C66.4742 47.4601 66.9808 47.0313 67.4311 46.547C67.9131 45.8505 68.4353 45.1827 68.9951 44.547C70.3851 42.852 69.4881 42.896 69.4881 42.896C68.8762 42.7426 68.2317 42.7835 67.6441 43.013ZM67.6441 66.445C67.7311 69.139 66.7751 68.4 66.7751 68.4C66.8107 66.7889 66.2715 65.2177 65.2541 63.968C63.8639 62.7321 62.9686 61.0343 62.7341 59.189C62.5171 57.104 61.8651 58.841 61.8651 58.841C61.2493 60.2949 60.9443 61.8614 60.9697 63.44C60.995 65.0187 61.35 66.5746 62.0121 68.008C62.7146 68.3456 63.3214 68.8537 63.7771 69.486C62.3431 67.096 62.3431 63.143 62.3431 63.143C62.6041 61.843 63.1251 62.404 63.1251 62.404C63.0264 63.0424 63.0564 63.694 63.2132 64.3207C63.37 64.9473 63.6504 65.5363 64.0381 66.053C64.9596 67.2422 65.5042 68.6798 65.6021 70.181C65.2541 70.481 65.2541 70.05 65.2541 70.05C64.3851 67.313 63.6031 66.835 63.6031 66.835C63.2551 67.878 64.5591 69.919 64.5591 69.919C65.0371 71.136 64.1251 70.528 64.1251 70.528C59.1721 66.096 55.3491 67.747 55.3491 67.747C56.6815 68.5774 57.8701 69.619 58.8681 70.831C59.1542 71.6076 59.6194 72.3058 60.226 72.869C60.8326 73.4321 61.5634 73.8443 62.3591 74.072L69.7501 67.107L69.8021 67.083C70.4147 66.8146 71.0719 66.6624 71.7401 66.634C71.8684 64.066 71.85 61.4929 71.6851 58.927C68.8211 60.145 67.6481 66.444 67.6481 66.444L67.6441 66.445ZM62.9521 72.832C61.9816 71.6447 60.8578 70.5915 59.6101 69.7C59.6101 69.7 60.2621 68.7 63.2591 71.916C63.2601 71.919 63.3901 72.657 62.9561 72.831L62.9521 72.832ZM70.9031 62.014C69.8601 63.144 70.2031 66.314 70.2031 66.314C70.2031 67.184 69.6381 66.88 69.6381 66.88C69.6381 65.359 69.2471 66.098 69.2471 66.098C69.3341 67.358 68.8561 67.445 68.8561 67.445C68.5091 67.401 68.7691 65.838 68.7691 65.838C69.9421 61.538 70.8981 61.493 70.8981 61.493C71.5151 60.927 70.9061 62.013 70.9061 62.013L70.9031 62.014ZM56.4391 54.627C56.4399 54.3347 56.3539 54.0488 56.1921 53.8053C56.0303 53.5619 55.7999 53.372 55.5301 53.2596C55.2603 53.1472 54.9632 53.1174 54.6764 53.1739C54.3896 53.2304 54.1261 53.3708 53.9191 53.5772C53.7122 53.7836 53.5711 54.0468 53.5138 54.3334C53.4565 54.62 53.4855 54.9172 53.5971 55.1873C53.7088 55.4574 53.8981 55.6883 54.1411 55.8508C54.3841 56.0133 54.6698 56.1 54.9621 56.1C55.353 56.0995 55.7277 55.9442 56.0045 55.6682C56.2813 55.3922 56.4375 55.0179 56.4391 54.627ZM131.992 81.347C132.157 81.539 132.299 81.749 132.417 81.973C132.676 81.8839 132.953 81.8629 133.222 81.912C133.222 81.912 133.881 82.303 133.177 82.389C132.981 82.3278 132.776 82.3028 132.571 82.315C132.594 82.375 132.616 82.435 132.635 82.499C132.729 82.9122 132.742 83.3397 132.674 83.758C133.222 83.2205 133.893 82.825 134.628 82.606C136.076 82.346 135.856 82.128 135.856 82.128C134.712 81.3917 133.332 81.1129 131.992 81.347V81.347ZM64.1281 82.128C64.1281 82.128 63.9111 82.345 65.3451 82.606C66.0684 82.8249 66.7281 83.2153 67.2681 83.744C67.2013 83.3303 67.2149 82.9076 67.3081 82.499C67.3271 82.435 67.3491 82.375 67.3721 82.315C67.1712 82.3036 66.97 82.3287 66.7781 82.389C66.0781 82.303 66.7351 81.912 66.7351 81.912C67.0002 81.8637 67.2733 81.8844 67.5281 81.972C67.6455 81.7487 67.7877 81.5394 67.9521 81.348C66.625 81.1138 65.2584 81.3926 64.1291 82.128H64.1281ZM56.9831 66.964C57.4371 66.9593 57.8641 66.9727 58.2641 67.004C57.8951 66.604 56.6101 65.159 56.6841 64.388C56.6841 64.388 56.8841 64.214 57.5531 64.997C57.5107 64.1182 57.3987 63.2441 57.2181 62.383C56.1891 62.683 54.8301 61.623 54.8301 61.623C54.0911 61.015 54.1301 61.623 54.1301 61.623C54.4276 63.6821 55.4371 65.5718 56.9831 66.964V66.964ZM78.8571 10.7C79.0718 10.7 79.2818 10.6363 79.4603 10.517C79.6389 10.3978 79.7781 10.2282 79.8603 10.0298C79.9426 9.83144 79.9641 9.61314 79.9223 9.4025C79.8805 9.19186 79.7771 8.99836 79.6254 8.84644C79.4736 8.69452 79.2802 8.59101 79.0696 8.54899C78.859 8.50697 78.6406 8.52834 78.4422 8.61038C78.2437 8.69242 78.0741 8.83146 77.9546 9.00992C77.8352 9.18838 77.7713 9.39825 77.7711 9.613C77.7714 9.90104 77.8858 10.1772 78.0894 10.381C78.293 10.5847 78.5691 10.6995 78.8571 10.7V10.7ZM135.9 70.464C135.9 70.464 134.988 71.072 135.465 69.856C135.465 69.856 136.765 67.814 136.421 66.772C136.421 66.772 135.639 67.25 134.77 69.987C134.77 69.987 134.77 70.422 134.422 70.117C134.52 68.6161 135.065 67.1789 135.986 65.99C136.374 65.4732 136.654 64.8842 136.811 64.2576C136.967 63.6309 136.997 62.9793 136.898 62.341C136.898 62.341 137.42 61.776 137.68 63.079C137.68 63.079 137.68 67.033 136.246 69.422C136.702 68.7901 137.309 68.2823 138.011 67.945C138.673 66.5117 139.028 64.9557 139.054 63.377C139.079 61.7984 138.774 60.2318 138.158 58.778C138.158 58.778 137.506 57.04 137.289 59.126C137.055 60.9713 136.159 62.6692 134.769 63.905C133.752 65.1548 133.213 66.7259 133.248 68.337C133.248 68.337 132.292 69.076 132.379 66.382C132.379 66.382 131.206 60.082 128.339 58.866C128.169 61.4652 128.156 64.0723 128.3 66.673C129.454 66.7388 130.536 67.2531 131.316 68.106L137.554 74.047C138.371 73.826 139.124 73.4133 139.75 72.8433C140.376 72.2732 140.858 71.5621 141.154 70.769C142.152 69.5571 143.341 68.5155 144.673 67.685C144.673 67.685 140.854 66.032 135.9 70.464ZM131.165 67.379C131.165 67.379 130.687 67.292 130.774 66.032C130.774 66.032 130.383 65.293 130.383 66.814C130.383 66.814 129.818 67.114 129.818 66.249C129.818 66.249 130.165 63.077 129.118 61.949C129.118 61.949 128.51 60.863 129.118 61.428C129.118 61.428 130.074 61.471 131.247 65.772C131.252 65.771 131.513 67.336 131.166 67.379H131.165ZM137.074 72.766C136.639 72.592 136.774 71.854 136.774 71.854C139.774 68.639 140.423 69.638 140.423 69.638C139.173 70.5279 138.047 71.5797 137.074 72.766V72.766ZM144.749 53.15C144.703 53.15 144.659 53.15 144.614 53.157C144.28 53.2654 143.995 53.4897 143.811 53.7893C143.627 54.089 143.556 54.4445 143.611 54.7918C143.665 55.1392 143.842 55.4556 144.109 55.6842C144.376 55.9128 144.716 56.0386 145.068 56.039C145.114 56.039 145.158 56.039 145.203 56.032C145.538 55.9236 145.822 55.6993 146.006 55.3997C146.19 55.1 146.261 54.7445 146.207 54.3972C146.152 54.0498 145.975 53.7334 145.708 53.5048C145.441 53.2762 145.101 53.1504 144.749 53.15ZM147.066 44.743C146.369 44.6375 145.659 44.651 144.966 44.783C144.489 46.7242 143.412 48.4657 141.889 49.76C141.907 50.078 141.919 50.428 141.921 50.795C143.655 50.814 144.98 48.61 144.98 48.61C145.455 47.6353 145.992 46.6921 146.587 45.786C147.936 45.048 147.067 44.743 147.067 44.743H147.066ZM145.2 61.557C145.2 61.557 143.842 62.619 142.812 62.317C142.632 63.1788 142.52 64.0535 142.478 64.933C143.143 64.15 143.347 64.325 143.347 64.325C143.422 65.094 142.139 66.539 141.769 66.939C142.169 66.9083 142.595 66.895 143.048 66.899C144.592 65.5059 145.599 63.6163 145.895 61.558C145.895 61.558 145.937 60.949 145.2 61.557ZM64.2601 61.796C64.5731 62.16 64.8721 62.512 65.1481 62.84C65.1145 61.5973 65.3283 60.3603 65.7771 59.201C65.7313 58.3458 65.4299 57.5241 64.9121 56.842C64.1731 55.582 64.1731 56.407 64.1731 56.407C64.1148 57.7778 63.9055 59.138 63.5491 60.463C63.744 60.9296 63.9816 61.3772 64.2591 61.8L64.2601 61.796ZM69.1231 16.725C68.9103 16.9467 68.7234 17.192 68.5661 17.456C68.7971 17.7865 68.9843 18.1454 69.1231 18.524V16.725ZM58.1071 50.86C58.1071 50.493 58.1211 50.143 58.1391 49.826C56.6159 48.5316 55.5393 46.7901 55.0621 44.849C54.3694 44.7171 53.6593 44.7035 52.9621 44.809C52.9621 44.809 52.0931 45.109 53.4401 45.852C54.036 46.7579 54.5731 47.7012 55.0481 48.676C55.0481 48.676 56.3731 50.881 58.1071 50.86ZM62.7381 23.215C63.0824 23.9322 63.3306 24.6918 63.4761 25.474C63.4761 25.474 63.6891 26.728 64.7041 26.862C64.7782 26.3603 64.7199 25.848 64.535 25.3759C64.3502 24.9037 64.0451 24.488 63.6501 24.17C63.9884 24.3401 64.3172 24.5284 64.6351 24.734C64.559 24.1197 64.5256 23.5009 64.5351 22.882C64.2352 22.6155 63.8785 22.4208 63.4921 22.3129C63.1056 22.2049 62.6997 22.1865 62.3051 22.259C62.3051 22.259 61.4791 22.477 62.7391 23.216L62.7381 23.215ZM62.9551 40.159C62.9741 40.181 62.9901 40.202 63.0081 40.224C63.5001 39.475 64.8661 37.47 65.6081 37.118C65.6081 37.118 65.6511 37.205 65.2601 37.943C64.6042 38.9551 64.0616 40.0362 63.6421 41.167C63.7592 41.3926 63.8595 41.6266 63.9421 41.867C64.5176 41.3735 65.1286 40.923 65.7701 40.519C66.1003 39.9429 66.2959 39.2995 66.3421 38.637C66.2215 37.7297 66.1633 36.8152 66.1681 35.9C64.7831 36.131 63.2481 37.888 62.5891 38.721C62.6507 39.2141 62.774 39.6976 62.9561 40.16L62.9551 40.159ZM65.6051 25.387C65.7567 25.2801 65.9357 25.2186 66.1211 25.21C66.0408 24.0826 66.2379 22.9526 66.6954 21.919C67.1528 20.8854 67.8566 19.9797 68.7451 19.281C68.6098 18.5334 68.1836 17.87 67.5601 17.436C67.5601 17.436 67.1691 17.046 66.7351 18.136C66.446 18.9986 66.0673 19.8284 65.6051 20.612C64.9863 22.0255 64.8414 23.6013 65.1921 25.104C65.3234 25.1907 65.4614 25.2853 65.6061 25.388L65.6051 25.387ZM61.6051 31.556C61.6051 31.556 62.9231 33.742 60.5051 36.706C60.6529 37.065 60.7798 37.4323 60.8851 37.806C61.1992 37.4945 61.5417 37.2129 61.9081 36.965C63.5911 33.728 65.1541 33.089 65.8251 32.972V32.951C65.8255 32.7292 65.8648 32.5092 65.9411 32.301C65.641 32.2132 65.3201 32.2297 65.0306 32.3478C64.7412 32.4658 64.5002 32.6784 64.3471 32.951C64.3471 32.951 63.6951 33.125 64.7821 31.17C64.7821 31.17 66.6931 27.825 67.3021 27.086C67.3021 27.086 67.4321 26.695 66.6021 26.786C66.6021 26.786 66.1241 26.96 66.2551 26.086C66.2551 26.086 65.8201 25.826 65.6901 26.26C64.929 28.0217 64.0295 29.7204 63.0001 31.34C63.0001 31.34 62.3921 31.775 62.1751 30.775C62.1751 30.775 61.9141 29.819 61.2191 30.601C61.1481 30.78 61.1491 30.9795 61.222 31.1578C61.2949 31.336 61.434 31.4791 61.6101 31.557L61.6051 31.556ZM58.0651 48.68C57.9071 47.6416 57.8442 46.5909 57.8771 45.541C57.5312 44.96 57.3206 44.3085 57.2611 43.635C57.2572 42.8573 57.0946 42.0886 56.7831 41.376C57.3567 42.1901 57.7697 43.1061 58.0001 44.075C58.104 43.2941 58.2787 42.5243 58.5221 41.775C57.9339 40.4503 57.0748 39.2635 56.0001 38.291C55.0001 37.291 55.1751 38.03 55.1751 38.03C55.9571 38.899 55.1311 41.637 55.1311 41.637C55.0378 42.9589 55.2549 44.2842 55.765 45.5073C56.2752 46.7303 57.0642 47.8172 58.0691 48.681L58.0651 48.68ZM56.6561 35.12C56.4235 35.8974 56.3553 36.7148 56.4561 37.52C56.7027 37.7226 56.9365 37.9403 57.1561 38.172C57.5025 37.4096 57.888 36.6657 58.3111 35.943C58.4138 35.7803 58.536 35.6309 58.6751 35.498C58.8459 34.8306 58.8203 34.128 58.6016 33.4747C58.3829 32.8214 57.9803 32.2451 57.4421 31.815C55.8781 30.729 56.5731 31.858 56.5731 31.858C57.5681 33.078 56.6561 35.12 56.6561 35.12ZM59.8851 31.312C60.1665 31.3111 60.4414 31.2269 60.6751 31.07C60.6041 30.93 60.5633 30.7766 60.5555 30.6198C60.5476 30.463 60.5727 30.3063 60.6293 30.1599C60.6859 30.0135 60.7726 29.8806 60.8839 29.7698C60.9951 29.659 61.1284 29.5729 61.2751 29.517C61.2066 29.2583 61.067 29.024 60.8721 28.8406C60.6773 28.6572 60.4349 28.532 60.1726 28.4792C59.9103 28.4264 59.6384 28.4481 59.3877 28.5419C59.1371 28.6356 58.9177 28.7977 58.7545 29.0097C58.5912 29.2218 58.4906 29.4753 58.464 29.7415C58.4374 30.0078 58.4859 30.2762 58.604 30.5164C58.722 30.7565 58.905 30.9588 59.1321 31.1003C59.3593 31.2418 59.6215 31.3169 59.8891 31.317L59.8851 31.312ZM85.0701 12.267L84.8151 12.312C84.7776 12.466 84.6965 12.606 84.5816 12.7153C84.4667 12.8245 84.3228 12.8983 84.1671 12.928L84.1141 13.223L84.1461 13.38H86.0001L86.0271 13.223C86.0268 12.9694 85.9259 12.7262 85.7464 12.5469C85.567 12.3677 85.3237 12.267 85.0701 12.267ZM70.0361 67.8L68.4181 69.325L70.0361 67.8ZM70.1421 67.7L70.0421 67.8L70.1421 67.7ZM80.4211 75.311C80.4211 75.311 79.9431 75.311 80.4211 76.05C80.5774 76.4755 80.6455 76.9284 80.6211 77.381C81.0031 77.641 81.3838 77.892 81.7631 78.134C81.7678 77.8391 81.8592 77.5522 82.0261 77.309C82.1309 77.0658 82.1909 76.8056 82.2031 76.541C81.8361 76.027 81.1681 75.279 80.4211 75.308V75.311ZM92.5861 81.176C92.5861 81.176 92.1231 81.537 92.0691 82.738C92.6378 82.8887 93.2011 83.022 93.7591 83.138C93.7641 82.78 93.7661 79.992 92.5861 81.173V81.176ZM113.16 11.931L113.152 11.959L112.875 11.92C112.704 11.9207 112.535 11.9654 112.386 12.0498C112.237 12.1342 112.112 12.2555 112.024 12.4021C111.935 12.5486 111.885 12.7155 111.88 12.8868C111.874 13.058 111.912 13.2279 111.991 13.38H113.76C113.835 13.2377 113.874 13.0796 113.874 12.919L113.862 12.759L113.904 12.753C113.579 12.5606 113.319 12.2739 113.16 11.931V11.931ZM93.5601 12.415C92.5288 12.5189 91.4872 12.4286 90.4891 12.149C89.6794 12.391 88.8137 12.3693 88.0171 12.087C88.611 12.5652 89.2405 12.9974 89.9001 13.38H94.3301C94.2719 13.1761 94.1738 12.9858 94.0415 12.8201C93.9091 12.6544 93.7451 12.5167 93.5591 12.415H93.5601ZM88.6751 81.129C88.7272 81.3064 88.7581 81.4893 88.7671 81.674C88.9324 81.7367 89.0991 81.7977 89.2671 81.857C89.1119 81.5829 88.9117 81.3368 88.6751 81.129V81.129ZM114.52 79.229C114.441 79.389 114.188 79.402 114.003 79.388C113.964 79.8586 113.879 80.3244 113.751 80.779C113.917 80.704 114.077 80.629 114.237 80.554C114.487 80.1587 114.588 79.6869 114.52 79.224V79.229ZM85.2871 79.266C85.2481 79.5725 85.2733 79.8838 85.3611 80.18C85.5684 80.284 85.7751 80.384 85.9811 80.48C85.9016 80.1308 85.8454 79.7767 85.8131 79.42C85.6251 79.433 85.3671 79.42 85.2871 79.261V79.266ZM123.3 11.268C123.3 11.268 122.692 11.094 122.518 10.703C122.518 10.703 121.91 10.789 122.561 12.18C122.692 12.5696 122.782 12.9718 122.83 13.38H124.269C123.958 12.9062 123.572 12.4863 123.126 12.137C123.126 12.137 123.558 11.707 125.018 13.38H126.273C125.511 12.3997 124.477 11.6652 123.3 11.268V11.268ZM93.8551 9.781C93.1455 10.1603 92.5097 10.664 91.9781 11.268C91.8056 11.4259 91.6211 11.57 91.4261 11.699C92.1292 11.959 92.8904 12.0203 93.6261 11.876C94.9675 11.3582 96.4049 11.1358 97.8401 11.224C96.9101 9.6 94.7161 9.68 93.8551 9.781ZM129.943 67.886C129.818 67.8074 129.688 67.7356 129.555 67.671C129.688 67.7356 129.818 67.8074 129.943 67.886V67.886ZM115.3 8.413C115.739 8.22884 116.223 8.17975 116.69 8.272L116.805 8.123C116.913 7.95054 116.968 7.75039 116.963 7.54711C116.959 7.34384 116.895 7.14629 116.78 6.97871C116.665 6.81114 116.503 6.68085 116.315 6.60382C116.127 6.52679 115.92 6.50638 115.721 6.54511C115.521 6.58383 115.337 6.68 115.191 6.8218C115.046 6.9636 114.945 7.14487 114.9 7.34334C114.856 7.54182 114.871 7.74886 114.943 7.93906C115.015 8.12926 115.141 8.29432 115.305 8.414L115.3 8.413ZM119.219 12.007C119.219 12.007 116.873 10.79 116.743 9.313C116.743 9.313 115.743 8.792 115.657 9.574C115.657 9.574 115.788 10.834 114.657 9.748C114.143 9.37841 113.57 9.09908 112.962 8.922C111.86 8.61132 110.905 7.91821 110.268 6.967C109.403 6.04536 108.258 5.43483 107.01 5.23C106.159 5.08954 105.355 4.74657 104.664 4.23C104.664 4.23 103.708 4.1 104.577 5.36C104.752 5.54616 104.958 5.70076 105.186 5.817C106.07 5.922 109.42 6.469 110.659 8.836C110.659 8.836 110.659 8.856 110.659 8.887C110.804 9.1536 110.893 9.44691 110.92 9.749C110.153 9.71532 109.391 9.89497 108.72 10.268C110.277 10.112 110.052 10.661 110.052 10.661C108.227 10.705 106.403 12.79 106.403 12.79C105.896 11.926 106.759 11.123 107.351 10.704C104.915 10.98 102.467 10.2939 100.529 8.792C98.8891 8.705 99.2771 9.185 99.2771 9.185C99.7679 9.2782 100.23 9.48658 100.624 9.793C101.113 10.4014 101.727 10.8983 102.423 11.2505C103.12 11.6026 103.884 11.8019 104.664 11.835C106.098 11.748 105.664 12.009 105.664 12.009C105.246 12.3918 104.915 12.86 104.694 13.382H107.134C107.891 12.934 110.134 11.561 110.704 10.662C110.704 10.662 112.615 9.533 114.004 10.879C114.032 11.0449 114.092 11.2036 114.181 11.346C114.271 11.4884 114.388 11.6116 114.525 11.7086C114.662 11.8056 114.818 11.8744 114.982 11.911C115.146 11.9477 115.316 11.9514 115.481 11.922C115.481 11.922 117.825 11.767 118.474 13.382H121.174C120.599 12.822 119.938 12.3584 119.215 12.009L119.219 12.007ZM100.71 8.1C100.71 8.1 105.482 11.989 109.357 9.053C108.643 8.69172 107.865 8.47524 107.067 8.41603C106.269 8.35682 105.467 8.45605 104.707 8.708C104.707 8.708 104.668 7.208 108.892 7.968C108.192 7.183 106.392 5.883 102.579 6.797C101.535 7.06688 100.436 7.03673 99.4081 6.71C99.4081 6.71 98.6251 7.01 100.71 8.1ZM111.943 7.81L111.722 7.589C111.744 7.629 111.767 7.668 111.789 7.709C111.789 7.706 111.845 7.745 111.943 7.806V7.81ZM102.943 6.104C103.403 5.92456 103.885 5.80752 104.376 5.756C104.15 5.50238 103.983 5.20185 103.887 4.876C103.347 4.95902 102.795 4.91798 102.273 4.756C101.708 3.93 101.795 4.582 101.795 4.582C101.811 4.92148 101.929 5.24823 102.134 5.51921C102.339 5.79018 102.622 5.99267 102.944 6.1L102.943 6.104ZM124.806 67.035C124.806 66.7645 124.726 66.5002 124.575 66.2754C124.425 66.0505 124.211 65.8754 123.961 65.7719C123.711 65.6685 123.436 65.6415 123.171 65.6943C122.906 65.7472 122.662 65.8774 122.471 66.0687C122.28 66.2599 122.149 66.5036 122.096 66.7689C122.044 67.0341 122.071 67.3091 122.174 67.5591C122.277 67.809 122.453 68.0226 122.677 68.173C122.902 68.3234 123.167 68.4038 123.437 68.404C123.617 68.404 123.796 68.3685 123.962 68.2994C124.128 68.2304 124.28 68.1292 124.407 68.0017C124.534 67.8741 124.635 67.7228 124.704 67.5562C124.772 67.3896 124.807 67.2112 124.807 67.031L124.806 67.035ZM129.533 67.665C129.391 67.5966 129.244 67.5385 129.093 67.491C129.244 67.5373 129.392 67.5941 129.535 67.661L129.533 67.665Z" fill="white"/>
</svg>
