<svg width="200" height="100" viewBox="0 0 200 100" fill="none" xmlns="http://www.w3.org/2000/svg">
<g clip-path="url(#clip0)">
<path d="M164.549 50.7C164.549 41.6 160.139 34.412 151.71 34.412C143.246 34.412 138.125 41.596 138.125 50.629C138.125 61.329 144.171 66.739 152.848 66.739C156.276 66.8343 159.671 66.0387 162.7 64.43V57.317C159.994 58.6562 157.006 59.3269 153.987 59.273C150.537 59.273 147.479 58.064 147.087 53.867H164.478C164.478 53.405 164.549 51.556 164.549 50.7ZM146.98 47.321C146.98 43.302 149.434 41.631 151.674 41.631C153.843 41.631 156.155 43.302 156.155 47.321H146.98Z" fill="white"/>
<path d="M124.4 34.414C121.805 34.4038 119.307 35.3979 117.429 37.188L116.967 34.988H109.143V76.451L118.034 74.566L118.07 64.501C119.85 65.9466 122.072 66.7377 124.365 66.742C130.731 66.742 136.528 61.621 136.528 50.347C136.489 40.033 130.621 34.414 124.4 34.414ZM122.266 58.914C121.486 58.9612 120.706 58.8359 119.98 58.5471C119.254 58.2583 118.6 57.813 118.066 57.243L118.03 44.049C118.56 43.4603 119.215 42.9981 119.948 42.6964C120.68 42.3947 121.471 42.2613 122.262 42.306C125.498 42.306 127.739 45.934 127.739 50.592C127.741 55.361 125.536 58.918 122.264 58.918L122.266 58.914Z" fill="white"/>
<path d="M96.907 32.316L105.833 30.396V23.176L96.907 25.061V32.316Z" fill="white"/>
<path d="M105.834 35.019H96.907V66.137H105.834V35.019Z" fill="white"/>
<path d="M87.3401 37.651L86.7711 35.019H79.0891V66.137H87.9801V45.048C90.0801 42.31 93.6351 42.807 94.7371 43.199V35.019C93.6001 34.592 89.4381 33.81 87.3401 37.651Z" fill="white"/>
<path d="M69.558 27.3L60.88 29.149L60.844 57.636C60.8157 58.85 61.0351 60.0571 61.4889 61.1835C61.9427 62.3099 62.6213 63.332 63.4833 64.1874C64.3454 65.0428 65.3727 65.7135 66.5026 66.1585C67.6324 66.6036 68.8412 66.8137 70.055 66.776C72.1933 66.8744 74.325 66.4717 76.28 65.6V58.384C75.142 58.846 69.523 60.484 69.523 55.219V42.594H76.28V35.019H69.523L69.558 27.3Z" fill="white"/>
<path d="M45.517 44.052C45.517 42.665 46.655 42.132 48.54 42.132C51.6168 42.1962 54.6364 42.9754 57.36 44.408V36.05C54.5527 34.9423 51.5579 34.3868 48.54 34.414C41.321 34.414 36.519 38.184 36.519 44.479C36.519 54.295 50.033 52.73 50.033 56.962C50.033 58.598 48.61 59.131 46.619 59.131C43.2065 58.9449 39.8834 57.9711 36.91 56.286V64.75C39.9756 66.0764 43.2788 66.7661 46.619 66.777C54.019 66.777 59.102 63.114 59.102 56.748C59.067 46.15 45.517 48.035 45.517 44.052Z" fill="white"/>
</g>
<defs>
<clipPath id="clip0">
<rect x="36.519" y="23.176" width="128.03" height="53.275" fill="white"/>
</clipPath>
</defs>
</svg>
